
<svg xmlns="http://www.w3.org/2000/svg" version="1.1" xmlns:xlink="http://www.w3.org/1999/xlink" preserveAspectRatio="none" x="0px" y="0px" width="960px" height="640px" viewBox="0 0 960 640">
<defs>
<g id="Layer28_0_FILL">
<path fill="#E8E8E8" stroke="none" d="
M 271.2 582.65
L 303.35 582.05 324.95 582.05
Q 335.55 571.85 352.95 554.45 375.5 531.95 381.65 525.9 426.04296875 482.119921875 440.2 466.2 440.6236328125 465.7765625 441 465.35 444.6806640625 461.148828125 446.05 459.1 444.6806640625 461.148828125 441 465.35
L 446.5 508.7 446.05 582.1 468.05 582.1 481.6 562.45 454.95 537.25
Q 458.75 526.45 470.1 484.25
L 480.65 444.2 470.1 484.25
Q 458.75 526.45 454.95 537.25
L 481.6 562.45 468.05 582.1 590.05 582.1 566.7 559.2 593.35 529.3 551.25 439.05 593.35 529.3 566.7 559.2 590.05 582.1 602.2 582.1
Q 600.58671875 540.1126953125 599.5 511.1 598.0857421875 473.5701171875 597.55 457.75 598.0857421875 473.5701171875 599.5 511.1
L 632.15 582.1 672.8 582.6
Q 655.75 546.7 638.35 510.35 603.65 437.65 602.2 435.3 600.7 431.9 597.1 428.55 589.9 421.9 579.35 422.2 572.7 423.4 565.1 425.1 549.85 428.4 545 430.7
L 545.2 434.2
Q 542.9 437.1 538.8 439.55 530.6 444.5 521.5 442.2 517.65 441.45 512.5 439.9 502.3 436.8 496.15 433
L 496.15 426.45 468.5 413.3
Q 464.8 411.1 459.55 409.85 449.05 407.4 441.4 412.35
L 271.2 582.65 Z"/>
</g>

<g id="Layer27_0_FILL">
<path fill="#97D6D8" stroke="none" d="
M 545.2 434.2
Q 541.75 439.6 533.9 442.15 518.15 447.25 496.15 433
L 501.7 582.1 558.3 582.1 545.2 434.2 Z"/>
</g>

<g id="Layer26_0_FILL">
<path fill="#D3CABA" stroke="none" d="
M 533.45 441.25
Q 541.45 439 545.2 434.2
L 544.15 413.2
Q 527.8 418 512.2 412.85 507.35 411.2 503.15 408.8
L 499.9 406.7 496.15 426.45 496.15 433
Q 517.45 445.7 533.45 441.25 Z"/>
</g>

<g id="Layer24_0_FILL">
<path fill="#AAD3EA" stroke="none" d="
M 590.4 87.35
L 590.4 79.55 577.4 103.05
Q 572.4 111.5 552.7 129.1
L 533.95 145.05 518.95 125.55
Q 514.25 119 500.65 105.85
L 487.95 94.05
Q 481.1 86.55 468.35 69.55
L 456.95 54.05
Q 460.4 64.05 463.75 92.3 465.45 106.45 466.45 118.55 467.7 129.8 466.95 147.55 466.6 156.45 465.95 163.05 449.1 165.25 419.85 161.8
L 393.95 157.95 426.95 226.45
Q 423.85 226.75 411.85 232.65
L 400.45 238.45
Q 396.1 241.9 381.6 249
L 367.95 255.45 425.45 281.95 381.45 317.95 425.45 334.95 413.95 362.45 453.45 361.45 447.45 385.95 612.45 370.95
Q 606.5 361.25 605.15 355.65 604.7 353.9 604.8 352.75
L 604.95 351.95 622.95 352.45 607.95 332.95
Q 609.85 331.4 612.1 325
L 613.95 318.95
Q 620.45 316.45 643.45 306.45 632.55 302.4 622.15 290 618.85 286.15 616.05 281.9
L 613.9 278.45
Q 612.05 271.9 631.3 256.25 640.9 248.45 650.9 241.95 631.85 237.9 618.95 226 614.95 222.3 612 218.25
L 609.9 214.95
Q 614.3 209.65 629.8 183.5 637.55 170.45 644.4 158.45 636.9 162.5 613.65 165.9
L 591.9 168.45
Q 589.7 168.75 588.6 166.9
L 587.9 164.95
Q 588.2 160.6 590.85 148.35
L 593.4 136.95
Q 593.7 132.6 592.85 119.65
L 591.9 107.55
Q 590.65 97.25 590.4 87.35 Z"/>
</g>

<g id="Layer23_0_FILL">
<path fill="#D3CABA" stroke="none" d="
M 556.45 172.7
Q 546.65 168.25 535.95 167.9
L 527.2 168.4
Q 508.6 169.35 491.95 177.2 486.75 179.65 482.35 182.55
L 479 184.9
Q 461.1 200.5 454.35 218.55 450.95 227.55 451.15 233.45 447.55 250.85 448.7 282.6 449.25 298.45 450.55 310.85 451.4 321.4 457.1 347.65 458.75 358.1 465.85 372.05 469.45 379 472.65 383.85 488.7 403.6 510.45 411.35 521.35 415.25 529 415.15 544.05 414.75 558.1 408.5 565.15 405.4 569.15 402.35 586.05 389.75 592.95 373.55 595.15 368.5 596.05 363.7
L 596.5 359.9
Q 597.7 355.5 599 332.8
L 600.95 280.45
Q 601.55 261.5 599.85 247.05
L 598 236.4
Q 595.148046875 222.6267578125 590.65 211.6 588.6357421875 206.603515625 586.25 202.15 575.1044921875 181.1630859375 556.45 172.7 Z"/>
</g>

<g id="Layer21_0_FILL">
<path fill="#E8E8E8" stroke="none" d="
M 470.05 256.65
Q 468.6 261.65 468.3 265.85 469.5 287.5 485.15 294.6 492.95 298.15 500.5 297.35 523.95 296.4 531.85 280.6 535.75 272.7 535 265 531.5 245.6 519.7 238.8 512.55 234.75 501.2 235.2 496.6 234.7 493.65 235.35 488.7 236.35 478.7 242.95 472.95 246.75 470.05 256.65 Z"/>
</g>

<g id="Layer20_0_FILL">
<path fill="#0E0E0E" stroke="none" d="
M 512.1 264.1
Q 511.9 264.35 511.6 265.2 511.4 265.85 511.25 266.45 511.15 267.5 511.6 268.05 512 268.45 513 268.7 514.5 269.2 515.05 269.3 516.45 269.4 517.05 268.65 517.45 268.1 517.55 266.8 517.55 265.65 517.4 265.35 517.15 264.8 516.45 264.4 515.3 263.55 514.3 263.35 512.8 263.1 512.1 264.1 Z"/>
</g>

<g id="Layer19_0_FILL">
<path fill="#D3CABA" stroke="none" d="
M 473.35 249.75
Q 467.6 259.45 468 265.8
L 493.35 263.65
Q 521.35 262 534.7 264.7 534.4 262.3 533.45 258.75 531.6 251.6 528.5 245.85 527.15 243.65 524.6 240.8 519.5 235.1 513.5 231.75 509.65 230.5 502.5 230.05 498.65 230.55 493.8 232.2 484.1 235.55 479.15 241.35 476.2 244.9 473.35 249.75 Z"/>
</g>

<g id="Layer13_0_FILL">
<path fill="#652122" stroke="none" d="
M 539.65 341.75
L 532.65 341.6
Q 506.05 342.4 496.8 349.35 493.9 351.5 493.1 354.05 492.7 355.3 492.85 356.15 492.95 359.8 497.2 361.75 499.3 362.75 501.4 363 505.1 363.75 512.05 363.45 515.55 363.3 518.25 363 526.2 361.45 541.2 360.25 544.55 360.1 551.15 361.2 555.1 361.85 566.95 362.1 574.05 361.65 576.8 357.85 578.15 355.95 578.1 354.15 577.7 346.1 555.15 343.05 548.05 342.1 539.65 341.75 Z"/>
</g>

<g id="Layer12_0_FILL">
<path fill="#DEDFAB" stroke="none" d="
M 504.05 352.7
L 505.55 351.3
Q 507 349.1 506.7 345.25 500.85 346.75 497.95 348.9
L 499.65 351.5
Q 501.85 353.9 504.05 352.7
M 520.75 342.35
Q 510.2 344.15 507.9 345
L 510.4 348.75
Q 513.45 352.25 516.15 351.05 521.3 348.75 520.75 342.35
M 527.4 350.8
Q 528.3 350.65 529.1 350.05 531.65 348.05 532.45 342 524.55 342 521.6 342.4
L 522.75 346.5
Q 524.4 350.65 526.7 350.8
L 527.4 350.8
M 544.35 346
Q 545.85 343.8 546 342.1 543.45 341.85 537.95 341.9
L 533 342 534.1 345.85
Q 535.85 349.65 539 349.45 542.25 349.25 544.35 346 Z"/>

<path fill="#E4DDAB" stroke="none" d="
M 559.25 343.85
Q 550.1 342.5 546 342.1
L 546.75 345.5
Q 548.05 348.95 550.7 349.45
L 553.7 348.8
Q 557.15 347.45 559.25 343.85
M 559.25 343.85
L 559.2 346.3
Q 559.75 349.05 563 350.65 566.25 352.3 569.65 349.9 571.35 348.7 572.4 347.2
L 559.25 343.85 Z"/>

<path fill="#E3DDAC" stroke="none" d="
M 572.4 360.8
Q 578.05 358.9 577.55 353.1 576.5 352.15 574.9 351.65 571.8 350.7 569.35 353.15
L 568.2 354.6
Q 567 357 566.6 361.55
L 568.4 361.55
Q 570.6 361.4 572.4 360.8
M 565.75 357.75
Q 564.1 353.9 560.05 353.65 558.85 353.45 557.35 354.3 554.4 355.95 553 361.15
L 559 361.55
Q 565.25 361.9 566.6 361.55 566.6 359.7 565.75 357.75
M 552.75 354.65
Q 552.3 353.75 551.5 352.9 549.95 351.15 548.25 351.35 547.25 351.35 545.8 352.45 542.95 354.65 540.8 360.35
L 545.7 360.55
Q 550.95 360.8 553 361.15
L 552.75 354.65
M 540.35 356.2
Q 539.5 352 537.2 352 536.3 351.9 534.85 353 532 355.25 529.3 361.45
L 534.2 360.85
Q 539.35 360.3 540.8 360.35 540.8 358.25 540.35 356.2
M 517.75 362.9
L 522.8 362.35
Q 528.1 361.75 529.3 361.45 529.65 359.5 529.3 357.45 528.65 353.4 525.45 353.15 524.05 353.2 522.4 354.45 519.05 356.9 517.75 362.9
M 508.15 363
Q 512.8 363.25 517.75 362.9 517.85 361.05 517.35 359.1 516.25 355.25 513.05 354.8 512.05 354.85 510.45 355.85 507.3 357.85 504.55 362.7
L 508.15 363
M 497.8 357.85
L 495.05 359.8
Q 497.1 362.05 501.05 362.6 503 362.9 504.55 362.7 504.6 361.35 504.35 359
L 504.05 356.9
Q 503.65 356.4 502.6 356.25
L 501.6 356.15
Q 500.75 355.9 497.8 357.85 Z"/>
</g>

<g id="Layer9_0_FILL">
<path fill="#E8E8E8" stroke="none" d="
M 571.75 230
Q 571.55078125 229.9978515625 571.35 230 571.1234375 229.99375 570.9 230 570.8068359375 229.9978515625 570.7 230 570.674609375 229.9986328125 570.6 230 569.975 230.0125 569.3 230 568.6615234375 230.0478515625 568 230.1 567.8 230.1 567.6 230.1 567.3 230.1 567.05 230.1 566.8501953125 230.0951171875 566.65 230.1 560.6904296875 230.0734375 554.45 233.75 541 241.8 539.2 263.7
L 539.55 266.55
Q 540.15 270.15 541.7 273.55 546.55 284.55 558.5 290.2
L 561.45 290.7
Q 562.678515625 290.8390625 563.9 290.9 565.1875 290.9625 566.45 291 566.6498046875 291 566.85 291 567.95 290.95 569.05 290.9 581.25 290.1 589.75 282.8
L 591.35 281.75
Q 593.25 280.25 594.9 278 600.2 270.75 600.95 258.7 601.3 255.25 600.3 250.75 598.35 241.7 591.65 236.5 590.05 234.6 586.25 232.85 581.6375 230.75 575.8 230.15 573.775 230.0875 571.75 230 Z"/>
</g>

<g id="Layer8_0_FILL">
<path fill="#0C0F0C" stroke="none" d="
M 583.9 264
Q 584.25 263.65 584.15 263.15 584.1 262.65 583.65 262.3 583.6 262.25 583.5 262.25 583.7 262.05 583.8 261.85 583.95 261.6 583.85 261.15 583.8 260.45 582.8 260.2 582.1 259.95 581.5 260.25 581.25 260.15 581 260.15 580.65 260.1 580.4 260.15 580.1 260.1 579.7 260.25 579.05 260.4 578.85 260.9
L 578.8 261.3
Q 578.8 261.4 578.8 261.5 577.95 261.95 578.15 262.7
L 578.15 262.75 578.1 262.9 578.15 263.3
Q 578.3 263.7 578.75 264 579.25 264.3 579.85 264.3 580.4 264.25 580.85 263.95 580.95 263.9 581.05 263.8 581.25 264.15 581.7 264.35 582.2 264.6 582.85 264.5 583.5 264.4 583.9 264 Z"/>
</g>

<g id="Layer7_0_FILL">
<path fill="#D3CABA" stroke="none" d="
M 600 247.3
Q 595.8 235.25 583.85 231.35 580.7 229.7 575.15 229.3 564.1 228.6 552.2 235.15 548.5 237.95 545 243 538.05 253.1 539.25 264.3
L 563.05 261.2
Q 587.8 258.15 601.85 258.6 602.15 253.35 600 247.3 Z"/>
</g>

<g id="Layer4_0_FILL">
<path fill="#D3CABA" stroke="none" d="
M 436.4 325.9
Q 436.05 327.2 436 328.05 436.25 338.55 446.3 344.1 451.3 346.85 456.25 347.5
L 450.55 310.85
Q 442.1 313.3 438.2 320.9 437 323.3 436.4 325.9 Z"/>
</g>

<g id="Layer3_0_FILL">
<path fill="#D3CABA" stroke="none" d="
M 600.45 303.65
L 598.4 337.45
Q 602.55 336.35 606.6 332.75 612.5 327.5 613.15 320.05 613.8 312.9 607.2 307.55 605.1 305.9 602.6 304.6
L 600.45 303.65 Z"/>
</g>

<g id="Layer1_0_FILL">
<path fill="#AAD3EA" stroke="none" d="
M 483.45 225.3
Q 482.5 225.2 480.5 225.45 479.25 225.6 477.95 226.6
L 476.9 227.55 476 228.95
Q 475.35 230.85 476.9 233.3
L 478.55 234.5
Q 480.8 236 484.05 237.4 494.3 241.95 509.9 244.15
L 518.9 245.25
Q 528.95 246.25 534.05 245.6
L 535.5 245.7
Q 537.45 245.6 539.95 244.45 547.9 240.85 558.25 228.4
L 559.95 226.45
Q 562.2 224.05 565.1 221.85 574.45 214.75 586.9 212.2
L 590.5 211.2
Q 594.35 209.65 595.75 207.1 595.95 206.5 595.4 205.65 594.3 204.05 590.6 203 586.55 202.25 581.05 202.75 570 203.8 562.55 210.35 559.8 212.25 555.65 215.9 547.4 223.3 540.6 232.25 539.25 233.25 537 234.2 532.4 236.1 527.7 235.95 523.2 235.9 515.4 234.55 499.85 231.85 483.45 225.3 Z"/>
</g>

<path id="Layer28_0_1_STROKES" stroke="#000000" stroke-width="1" stroke-linejoin="round" stroke-linecap="round" fill="none" d="
M 599.5 511.1
L 632.15 582.1 672.8 582.6
Q 655.75 546.7 638.35 510.35 603.65 437.65 602.2 435.3 600.7 431.9 597.1 428.55 589.9 421.9 579.35 422.2 572.7 423.4 565.1 425.1 549.85 428.4 545 430.7
L 545.2 434.2
Q 542.9 437.1 538.8 439.55 530.6 444.5 521.5 442.2 517.65 441.45 512.5 439.9 502.3 436.8 496.15 433
L 496.15 426.45 468.5 413.3
Q 464.8 411.1 459.55 409.85 449.05 407.4 441.4 412.35
L 271.2 582.65 303.35 582.05 324.95 582.05
Q 335.55 571.85 352.95 554.45 375.5 531.95 381.65 525.9 426.04296875 482.119921875 440.225 466.225 440.6236328125 465.7765625 441 465.35 444.6806640625 461.148828125 446.05 459.1
M 590.05 582.1
L 602.2 582.1
Q 600.58671875 540.1126953125 599.5 511.1 598.0857421875 473.5701171875 597.55 457.75
M 551.25 439.05
L 593.35 529.3 566.7 559.2 590.05 582.1 468.05 582.1 446.05 582.1 446.5 508.7 441 465.35
M 480.65 444.2
L 470.1 484.25
Q 458.75 526.45 454.95 537.25
L 481.6 562.45 468.05 582.1"/>

<path id="Layer27_0_1_STROKES" stroke="#000000" stroke-width="1" stroke-linejoin="round" stroke-linecap="round" fill="none" d="
M 496.15 433
L 501.7 582.1 558.3 582.1 545.2 434.2
Q 541.75 439.6 533.9 442.15 518.15 447.25 496.15 433 Z"/>

<path id="Layer26_0_1_STROKES" stroke="#000000" stroke-width="1" stroke-linejoin="round" stroke-linecap="round" fill="none" d="
M 496.15 433
L 496.15 426.45 499.9 406.7 503.15 408.8
Q 507.35 411.2 512.2 412.85 527.8 418 544.15 413.2
L 545.2 434.2
Q 541.45 439 533.45 441.25 517.45 445.7 496.15 433 Z"/>

<path id="Layer24_0_1_STROKES" stroke="#000000" stroke-width="1" stroke-linejoin="round" stroke-linecap="round" fill="none" d="
M 612.45 370.95
L 447.45 385.95 453.45 361.45 413.95 362.45 425.45 334.95 381.45 317.95 425.45 281.95 367.95 255.45 381.6 249
Q 396.1 241.9 400.45 238.45
L 411.85 232.65
Q 423.85 226.75 426.95 226.45
L 393.95 157.95 419.85 161.8
Q 449.1 165.25 465.95 163.05 466.6 156.45 466.95 147.55 467.7 129.8 466.45 118.55 465.45 106.45 463.75 92.3 460.4 64.05 456.95 54.05
L 468.35 69.55
Q 481.1 86.55 487.95 94.05
L 500.65 105.85
Q 514.25 119 518.95 125.55
L 533.95 145.05 552.7 129.1
Q 572.4 111.5 577.4 103.05
L 590.4 79.55 590.4 87.35
Q 590.65 97.25 591.9 107.55
L 592.85 119.65
Q 593.7 132.6 593.4 136.95
L 590.85 148.35
Q 588.2 160.6 587.9 164.95
L 588.6 166.9
Q 589.7 168.75 591.9 168.45
L 613.65 165.9
Q 636.9 162.5 644.4 158.45 637.55 170.45 629.8 183.5 614.3 209.65 609.9 214.95
L 612 218.25
Q 614.95 222.3 618.95 226 631.85 237.9 650.9 241.95 640.9 248.45 631.3 256.25 612.05 271.9 613.9 278.45
L 616.05 281.9
Q 618.85 286.15 622.15 290 632.55 302.4 643.45 306.45 620.45 316.45 613.95 318.95
L 612.1 325
Q 609.85 331.4 607.95 332.95
L 622.95 352.45 604.95 351.95 604.8 352.75
Q 604.7 353.9 605.15 355.65 606.5 361.25 612.45 370.95 Z"/>

<path id="Layer23_0_1_STROKES" stroke="#000000" stroke-width="1" stroke-linejoin="round" stroke-linecap="round" fill="none" d="
M 527.2 168.4
L 535.95 167.9
Q 546.65 168.25 556.45 172.7 575.1044921875 181.1630859375 586.275 202.175 588.6357421875 206.603515625 590.675 211.6 595.148046875 222.6267578125 598 236.4
L 599.85 247.05
Q 601.55 261.5 600.95 280.45
L 599 332.8
Q 597.7 355.5 596.5 359.9
L 596.05 363.7
Q 595.15 368.5 592.95 373.55 586.05 389.75 569.15 402.35 565.15 405.4 558.1 408.5 544.05 414.75 529 415.15 521.35 415.25 510.45 411.35 488.7 403.6 472.65 383.85 469.45 379 465.85 372.05 458.75 358.1 457.1 347.65 451.4 321.4 450.55 310.85 449.25 298.45 448.7 282.6 447.55 250.85 451.15 233.45 450.95 227.55 454.35 218.55 461.1 200.5 479 184.9
L 482.35 182.55
Q 486.75 179.65 491.95 177.2 508.6 169.35 527.2 168.4 Z"/>

<path id="Layer22_0_1_STROKES" stroke="#000000" stroke-width="1" stroke-linejoin="round" stroke-linecap="round" fill="none" d="
M 531 302.55
L 532.8 307.25
Q 535 312.8 537.25 317.15 544.4 331.1 549 327.9 551.85 326.4 552.95 320.65 555.2 309.1 546.65 287.7"/>

<path id="Layer21_0_1_STROKES" stroke="#000000" stroke-width="1" stroke-linejoin="round" stroke-linecap="round" fill="none" d="
M 468.3 265.85
Q 468.6 261.65 470.05 256.65 472.95 246.75 478.7 242.95 488.7 236.35 493.65 235.35 496.6 234.7 501.2 235.2 512.55 234.75 519.7 238.8 531.5 245.6 535 265 535.75 272.7 531.85 280.6 523.95 296.4 500.5 297.35 492.95 298.15 485.15 294.6 469.5 287.5 468.3 265.85 Z"/>

<path id="Layer19_0_1_STROKES" stroke="#000000" stroke-width="1" stroke-linejoin="round" stroke-linecap="round" fill="none" d="
M 468 265.8
L 493.35 263.65
Q 521.35 262 534.7 264.7 534.4 262.3 533.45 258.75 531.6 251.6 528.5 245.85 527.15 243.65 524.6 240.8 519.5 235.1 513.5 231.75 509.65 230.5 502.5 230.05 498.65 230.55 493.8 232.2 484.1 235.55 479.15 241.35 476.2 244.9 473.35 249.75 467.6 259.45 468 265.8 Z"/>

<path id="Layer16_0_1_STROKES" stroke="#000000" stroke-width="1" stroke-linejoin="round" stroke-linecap="round" fill="none" d="
M 468.6 301.3
L 470.45 304
Q 473.1 307.15 476.95 309.3 489.2 316.2 508.75 310.65"/>

<path id="Layer15_0_1_STROKES" stroke="#000000" stroke-width="1" stroke-linejoin="round" stroke-linecap="round" fill="none" d="
M 563.4 300.85
L 567.05 301.9
Q 571.55 302.9 576 302.65 590.15 301.85 598 288.7"/>

<path id="Layer13_0_1_STROKES" stroke="#000000" stroke-width="1" stroke-linejoin="round" stroke-linecap="round" fill="none" d="
M 492.85 356.15
Q 492.7 355.3 493.1 354.05 493.9 351.5 496.8 349.35 506.05 342.4 532.65 341.6
L 539.65 341.75
Q 548.05 342.1 555.15 343.05 577.7 346.1 578.1 354.15 578.15 355.95 576.8 357.85 574.05 361.65 566.95 362.1 555.1 361.85 551.15 361.2 544.55 360.1 541.2 360.25 526.2 361.45 518.25 363 515.55 363.3 512.05 363.45 505.1 363.75 501.4 363 499.3 362.75 497.2 361.75 492.95 359.8 492.85 356.15 Z"/>

<path id="Layer12_0_1_STROKES" stroke="#000000" stroke-width="1" stroke-linejoin="round" stroke-linecap="round" fill="none" d="
M 546 342.1
Q 543.45 341.85 537.95 341.9
L 533 342 534.1 345.85
Q 535.85 349.65 539 349.45 542.25 349.25 544.35 346 545.85 343.8 546 342.1 550.1 342.5 559.25 343.85
L 572.4 347.2
Q 571.35 348.7 569.65 349.9 566.25 352.3 563 350.65 559.75 349.05 559.2 346.3
L 559.25 343.85
Q 557.15 347.45 553.7 348.8
L 550.7 349.45
Q 548.05 348.95 546.75 345.5
L 546 342.1 Z
M 507.9 345
L 510.4 348.75
Q 513.45 352.25 516.15 351.05 521.3 348.75 520.75 342.35 510.2 344.15 507.9 345 Z
M 529.3 361.45
Q 529.65 359.5 529.3 357.45 528.65 353.4 525.45 353.15 524.05 353.2 522.4 354.45 519.05 356.9 517.75 362.9
L 522.8 362.35
Q 528.1 361.75 529.3 361.45 532 355.25 534.85 353 536.3 351.9 537.2 352 539.5 352 540.35 356.2 540.8 358.25 540.8 360.35 542.95 354.65 545.8 352.45 547.25 351.35 548.25 351.35 549.95 351.15 551.5 352.9 552.3 353.75 552.75 354.65
L 553 361.15
Q 554.4 355.95 557.35 354.3 558.85 353.45 560.05 353.65 564.1 353.9 565.75 357.75 566.6 359.7 566.6 361.55 567 357 568.2 354.6
L 569.35 353.15
Q 571.8 350.7 574.9 351.65 576.5 352.15 577.55 353.1 578.05 358.9 572.4 360.8 570.6 361.4 568.4 361.55
L 566.6 361.55
Q 565.25 361.9 559 361.55
L 553 361.15
Q 550.95 360.8 545.7 360.55
L 540.8 360.35
Q 539.35 360.3 534.2 360.85
L 529.3 361.45 Z
M 517.75 362.9
Q 517.85 361.05 517.35 359.1 516.25 355.25 513.05 354.8 512.05 354.85 510.45 355.85 507.3 357.85 504.55 362.7
L 508.15 363
Q 512.8 363.25 517.75 362.9 Z
M 497.95 348.9
L 499.65 351.5
Q 501.85 353.9 504.05 352.7
L 505.55 351.3
Q 507 349.1 506.7 345.25 500.85 346.75 497.95 348.9 Z
M 504.55 362.7
Q 503 362.9 501.05 362.6 497.1 362.05 495.05 359.8
L 497.8 357.85
Q 500.75 355.9 501.6 356.15
L 502.6 356.25
Q 503.65 356.4 504.05 356.9
L 504.35 359
Q 504.6 361.35 504.55 362.7 Z
M 521.6 342.4
L 522.75 346.5
Q 524.4 350.65 526.7 350.8
L 527.4 350.8
Q 528.3 350.65 529.1 350.05 531.65 348.05 532.45 342 524.55 342 521.6 342.4 Z"/>

<path id="Layer11_0_1_STROKES" stroke="#000000" stroke-width="1" stroke-linejoin="round" stroke-linecap="round" fill="none" d="
M 498.4 335.65
Q 496 337.05 493.1 339.45 487.25 344.25 484.6 349.1 476 364.6 502.2 374.9
M 572.55 335.4
L 575.4 336.6
Q 578.75 338.15 581.4 340.15 589.9 346.6 588.1 354.8 588.5 358.9 586.3 363.05 581.9 371.45 569 372.05"/>

<path id="Layer9_0_1_STROKES" stroke="#000000" stroke-width="1" stroke-linejoin="round" stroke-linecap="round" fill="none" d="
M 575.8 230.175
Q 573.775 230.0875 571.75 230 571.55078125 229.9978515625 571.35 230 571.1234375 229.99375 570.9 230 570.8068359375 229.9978515625 570.725 230 570.674609375 229.9986328125 570.625 230 569.975 230.0125 569.325 230.025
M 563.925 290.925
Q 565.1875 290.9625 566.45 291 566.6498046875 291 566.85 291
M 575.8 230.175
Q 582.0130859375 230.6546875 586.85 232.85 590.65 234.6 592.25 236.5 598.95 241.7 600.9 250.75 601.9 255.25 601.55 258.7 600.8 270.75 595.5 278 593.85 280.25 591.95 281.75
L 590.35 282.8
Q 581.85 290.1 569.65 290.9 568.212109375 290.987109375 566.85 291
M 569.325 230.025
Q 568.4634765625 230.0318359375 567.6 230.1 567.1 230.05 566.65 230.1 560.5 229.95 554.05 233.75 540.6 241.8 538.8 263.7
L 539.15 266.55
Q 539.75 270.15 541.3 273.55 546.15 284.55 558.1 290.2
L 561.05 290.7
Q 562.47421875 290.8611328125 563.925 290.925"/>

<path id="Layer7_0_1_STROKES" stroke="#000000" stroke-width="1" stroke-linejoin="round" stroke-linecap="round" fill="none" d="
M 552.2 235.15
Q 548.5 237.95 545 243 538.05 253.1 539.25 264.3
L 563.05 261.2
Q 587.8 258.15 601.85 258.6 602.15 253.35 600 247.3 595.8 235.25 583.85 231.35 580.7 229.7 575.15 229.3 564.1 228.6 552.2 235.15 Z"/>

<path id="Layer4_0_1_STROKES" stroke="#000000" stroke-width="1" stroke-linejoin="round" stroke-linecap="round" fill="none" d="
M 456.25 347.5
Q 451.3 346.85 446.3 344.1 436.25 338.55 436 328.05 436.05 327.2 436.4 325.9 437 323.3 438.2 320.9 442.1 313.3 450.55 310.85
L 456.25 347.5 Z"/>

<path id="Layer3_0_1_STROKES" stroke="#000000" stroke-width="1" stroke-linejoin="round" stroke-linecap="round" fill="none" d="
M 600.45 303.65
L 602.6 304.6
Q 605.1 305.9 607.2 307.55 613.8 312.9 613.15 320.05 612.5 327.5 606.6 332.75 602.55 336.35 598.4 337.45
L 600.45 303.65 Z"/>

<path id="Layer1_0_1_STROKES" stroke="#000000" stroke-width="1" stroke-linejoin="round" stroke-linecap="round" fill="none" d="
M 535.5 245.7
L 534.05 245.6
Q 528.95 246.25 518.9 245.25
L 509.9 244.15
Q 494.3 241.95 484.05 237.4 480.8 236 478.55 234.5
L 476.9 233.3
Q 475.35 230.85 476 228.95
L 476.9 227.55 477.95 226.6
Q 479.25 225.6 480.5 225.45 482.5 225.2 483.45 225.3 499.85 231.85 515.4 234.55 523.2 235.9 527.7 235.95 532.4 236.1 537 234.2 539.25 233.25 540.6 232.25 547.4 223.3 555.65 215.9 559.8 212.25 562.55 210.35 570 203.8 581.05 202.75 586.55 202.25 590.6 203 594.3 204.05 595.4 205.65 595.95 206.5 595.75 207.1 594.35 209.65 590.5 211.2
L 586.9 212.2
Q 574.45 214.75 565.1 221.85 562.2 224.05 559.95 226.45
L 558.25 228.4
Q 547.9 240.85 539.95 244.45 537.45 245.6 535.5 245.7 Z"/>
</defs>

<g transform="matrix( 1, 0, 0, 1, 0,0) ">
<use xlink:href="#Layer28_0_FILL"/>

<use xlink:href="#Layer28_0_1_STROKES"/>
</g>

<g transform="matrix( 1, 0, 0, 1, 0,0) ">
<use xlink:href="#Layer27_0_FILL"/>

<use xlink:href="#Layer27_0_1_STROKES"/>
</g>

<g transform="matrix( 1, 0, 0, 1, 0,0) ">
<use xlink:href="#Layer26_0_FILL"/>

<use xlink:href="#Layer26_0_1_STROKES"/>
</g>

<g transform="matrix( 1, 0, 0, 1, 0,0) ">
<use xlink:href="#Layer24_0_FILL"/>

<use xlink:href="#Layer24_0_1_STROKES"/>
</g>

<g transform="matrix( 1, 0, 0, 1, 0,0) ">
<use xlink:href="#Layer23_0_FILL"/>

<use xlink:href="#Layer23_0_1_STROKES"/>
</g>

<g transform="matrix( 1, 0, 0, 1, 0,0) ">
<use xlink:href="#Layer22_0_1_STROKES"/>
</g>

<g transform="matrix( 1, 0, 0, 1, 0,0) ">
<use xlink:href="#Layer21_0_FILL"/>

<use xlink:href="#Layer21_0_1_STROKES"/>
</g>

<g transform="matrix( 1, 0, 0, 1, 0,0) ">
<use xlink:href="#Layer20_0_FILL"/>
</g>

<g transform="matrix( 1, 0, 0, 1, 0,0) ">
<use xlink:href="#Layer19_0_FILL"/>

<use xlink:href="#Layer19_0_1_STROKES"/>
</g>

<g transform="matrix( 1, 0, 0, 1, 0,0) ">
<use xlink:href="#Layer16_0_1_STROKES"/>
</g>

<g transform="matrix( 1, 0, 0, 1, 0,0) ">
<use xlink:href="#Layer15_0_1_STROKES"/>
</g>

<g transform="matrix( 1, 0, 0, 1, 0,0) ">
<use xlink:href="#Layer13_0_FILL"/>

<use xlink:href="#Layer13_0_1_STROKES"/>
</g>

<g transform="matrix( 1, 0, 0, 1, 0,0) ">
<use xlink:href="#Layer12_0_FILL"/>

<use xlink:href="#Layer12_0_1_STROKES"/>
</g>

<g transform="matrix( 1, 0, 0, 1, 0,0) ">
<use xlink:href="#Layer11_0_1_STROKES"/>
</g>

<g transform="matrix( 1, 0, 0, 1, 0,0) ">
<use xlink:href="#Layer9_0_FILL"/>

<use xlink:href="#Layer9_0_1_STROKES"/>
</g>

<g transform="matrix( 1, 0, 0, 1, 0,0) ">
<use xlink:href="#Layer8_0_FILL"/>
</g>

<g transform="matrix( 1, 0, 0, 1, 0,0) ">
<use xlink:href="#Layer7_0_FILL"/>

<use xlink:href="#Layer7_0_1_STROKES"/>
</g>

<g transform="matrix( 1, 0, 0, 1, 0,0) ">
<use xlink:href="#Layer4_0_FILL"/>

<use xlink:href="#Layer4_0_1_STROKES"/>
</g>

<g transform="matrix( 1, 0, 0, 1, 0,0) ">
<use xlink:href="#Layer3_0_FILL"/>

<use xlink:href="#Layer3_0_1_STROKES"/>
</g>

<g transform="matrix( 1, 0, 0, 1, 0,0) ">
<use xlink:href="#Layer1_0_FILL"/>

<use xlink:href="#Layer1_0_1_STROKES"/>
</g>
</svg>
