<?xml version="1.0" standalone="no"?>
<!DOCTYPE svg PUBLIC "-//W3C//DTD SVG 20010904//EN"
 "http://www.w3.org/TR/2001/REC-SVG-20010904/DTD/svg10.dtd">
<svg version="1.0" xmlns="http://www.w3.org/2000/svg"
 width="700.000000pt" height="700.000000pt" viewBox="0 0 700.000000 700.000000"
 preserveAspectRatio="xMidYMid meet">
<metadata>
Created by potrace 1.14, written by Peter Selinger 2001-2017
</metadata>
<g transform="translate(0.000000,700.000000) scale(0.100000,-0.100000)"
fill="#000000" stroke="none">
<path d="M5197 6994 c-1 -1 -58 -5 -126 -8 -69 -4 -127 -8 -130 -10 -3 -2 -35
-7 -71 -10 -264 -28 -579 -128 -795 -252 -215 -125 -415 -335 -527 -557 -89
-177 -154 -418 -175 -650 -13 -152 -7 -493 12 -608 2 -13 6 -46 9 -74 4 -27 8
-61 11 -75 9 -51 15 -86 21 -130 3 -25 17 -99 31 -165 14 -66 27 -131 30 -145
11 -59 69 -297 143 -580 69 -266 111 -435 126 -505 7 -37 12 -60 23 -105 5
-25 12 -58 15 -75 3 -16 10 -55 16 -85 7 -30 14 -68 16 -85 3 -16 7 -41 10
-55 37 -211 49 -356 49 -565 -1 -165 -8 -286 -20 -325 -2 -8 -6 -34 -9 -58 -3
-23 -7 -45 -9 -50 -3 -4 -8 -23 -11 -42 -3 -19 -15 -66 -27 -105 -148 -484
-508 -808 -990 -891 -74 -13 -375 -13 -454 1 -426 71 -776 294 -938 597 -104
192 -135 423 -92 673 27 155 124 337 231 435 153 139 318 216 549 256 22 3
272 8 555 10 283 1 527 3 541 3 l27 1 -38 128 c-59 196 -170 563 -181 598
l-10 32 -752 -3 c-414 -2 -763 -5 -777 -8 -14 -3 -56 -8 -93 -12 -37 -3 -78
-8 -90 -11 -12 -2 -33 -6 -47 -8 -14 -3 -41 -8 -60 -10 -193 -28 -485 -147
-650 -264 -89 -63 -216 -192 -279 -282 -129 -184 -216 -432 -248 -705 -18
-157 -7 -486 21 -632 84 -429 302 -773 659 -1037 286 -212 704 -390 1102 -472
44 -9 72 -13 108 -19 45 -6 104 -16 126 -20 9 -1 48 -6 86 -10 39 -4 81 -9 95
-11 14 -2 135 -6 270 -8 222 -3 436 7 550 28 19 4 51 8 70 10 28 4 145 27 250
51 29 6 135 37 180 52 25 8 50 16 55 17 6 2 19 6 30 11 11 4 61 23 110 42 319
124 622 321 861 558 264 262 446 583 543 959 30 113 35 138 45 204 3 15 7 45
11 67 21 141 29 275 29 465 -1 149 -3 196 -19 350 -9 85 -22 185 -35 265 -14
86 -59 336 -65 363 -3 12 -7 32 -10 45 -3 12 -7 33 -10 48 -13 72 -72 320
-126 528 -33 130 -62 243 -64 251 -3 8 -22 87 -44 175 -35 139 -118 501 -136
590 -3 17 -8 41 -10 55 -3 14 -8 41 -11 60 -3 19 -8 49 -11 65 -61 345 -17
620 122 757 55 55 141 97 230 113 36 6 182 7 210 1 11 -3 33 -5 49 -5 l28 -1
-7 -57 c-16 -129 -13 -385 5 -489 46 -269 167 -505 351 -685 194 -190 451
-252 702 -168 220 73 454 332 556 615 58 161 75 267 74 484 0 275 -32 428
-133 631 -68 137 -120 211 -224 315 -98 98 -188 156 -306 196 -64 22 -73 23
-598 23 -293 0 -534 0 -535 -1z"/>
</g>
</svg>
