<svg xmlns="http://www.w3.org/2000/svg" width="1123" height="630" preserveAspectRatio="none">
  <path id="sky_01" fill="#65ACE8" d="M1124.2 637.7 1123.8 0H0v637.7h1124.2Z" />
  <path id="sky_02" fill="#7FABB8"
    d="M1085.55 151.7q-38.25.9-73.05 3.95-32.9 2.95-45.95 6.25-11.9 3-47.8 3.45-32.65.45-74.8-1.35-41.5-1.7-73.95-4.75-34.85-3.3-45.25-6.85-27.7-9.5-118.8-2.6-31.15 2.35-73.1 6.9-43.45 4.95-58.6 6.6-22.9 2.5-65.55 1.4-43.35-1.1-92.1-5.55-117.2-10.75-180.65-31.35-46.5-16.4-150.25 7.75-51.85 12.05-94.45 27.4l.05 606.95h1333.8l-.35-606.95q-40.4-13.45-139.2-11.25Z" />
  <path id="sky_03" fill="#D0A780"
    d="M1019.8 210.75q-33 3.1-46.35 12.5-9.95 7-42 12.05-28.4 4.45-67.25 6.45-36.5 1.9-67.35.9-31.8-1-42.4-4.6-16.3-5.6-58.7-14.3-42.75-8.8-91.45-16.5-121.5-19.2-163.05-14.65-86.45 11.05-140.2 17.1-100 11.3-125.35 7.2-51.55-8.2-173.15 10.8-60.8 9.5-111.3 20.6l.6 672.95 1332.75-8.05-1.5-680.3q-22.8-7.6-59.15-13.7-36.85-6.2-74.2-8.6-40.55-2.55-69.95.15Z" />
  <path id="sky_04" fill="#E0A26A"
    d="M1016.95 268.9q-33.05 1.3-44.55 8.3-19.6 11.9-103.45 11.2-32.15-.25-63.6-2.4-29.5-2.05-42.45-4.55-27.4-5.25-135.2 9.9-22.25 3.1-83.6 12.4-46.35 7.05-63.3 8.9-38.1 4.2-149.75-15.35-43.7-7.65-118.35-23.25-49.55-10.3-190.15 14.3-70.3 12.3-130.7 26.65v463.8H1224.6V295.2q-22.4-7.45-60.3-14.05-37.25-6.5-76.3-9.85-41.3-3.55-71.05-2.4Z" />
  <path id="sky_05" fill="#F89B47"
    d="M940.65 410.55q-12.7 17.95-110.45 9.7-33.7-2.85-73.1-8.45-29.5-4.2-47.1-7.6-81.05-15.5-123.1-21-95.85-12.6-132.95-1.25-28.85 8.9-75.3 9.35-39.5.4-86.45-5.25-40.7-4.9-74.4-12.6-31.9-7.3-38.95-12.7Q150.4 339 18.4 381.35q-66 21.2-126.3 46.7l-.8 348.5 1333.25 6.35V425.35q-22.35-7.45-67.25-14.35-44.15-6.8-90.55-10.1-49.8-3.55-82.65-1.6-37.1 2.25-43.45 11.25Z" />
  <path id="moon" fill="#FCF188"
    d="m16.05 507.15-.15 1.15q-.15 1.3.15 2.15l2.5 6.15q1.65 5.1.5 8.55-1.15 3.3-2.95 5.6-2.4 2.9-6.85 5.05-.4.1-.9.6-.75.6-.75 1.25l2.05.3q2.55.15 4.8-.6Q21.8 535 24.1 524.7q.55-2.75-.2-6.35-1.45-7.15-7.85-11.2Z" />
  <path id="moon_path" fill="none" stroke="#C1D1E0" stroke-linecap="round" stroke-linejoin="round"
    d="M0 541.95q40-40.7 83.55-77.35 47.85-40.25 101.9-71.5 53.8-31.05 115-40.15 60.25-8.8 120.55-1.2 56.8 7.25 111 25.05 56.15 18.45 109.3 44.3 55.1 26.6 109.5 54.25 52.9 26.75 105.65 53.55 53.2 27.15 106.25 54.3 45.7 23.55 91.3 46.8" />
  <path id="trees_siluets" fill="#040502"
    d="m852.75 521.85-1.35-.85q-.2 1.7-1.6 2.9-.15.2-2.65 1.9-1 .7-.4 1.75.5.85.1.9-1.6 0-2.4.05-1.45.15-1 1 .4.8-.9.6-2.05-.3-2.7-.15-.4.1-.95 1.2-.2.3-1.55-1.7-1.6-2.35-4.3-2.85-1.95-.3-6.05.25-2.9.4-4.55 2.95l-1.1 2.45-.25 5.55q-.1 2.95-2.75.55-.5-.5-.25-2.95.2-1.8-.8-.95-1.2 1-2.7.85l-1.25-.4-1.4-5-3.3.05.15-.9-4.2-.05q-.1 1.55-2.9 2.9-.6.45-1.75-.05l-1.05-.75q.9-1.6-.9-1.8-1.05-.1-2.45 1.1-1.4 1.5-1.9 1.95-.7.65-1.3.3-.55-.35-.6-1.35-.05-.8-.7-1.2-.95-.3-1.5-.6-.65-.35-1.2.7l-1.25 2.25q-.55.75-2.55.35-1.75-.4-1.85.5-.15 1.5-1.75 3.7-1.7 2.4-2.8 2.05-.45-.15-.65-1.15-.3-1.65-.45-2.05-1.05-2.9-5.8-3.05-8.45-.25-8.75 5.25-.05 1.3-1.8 3-1.1 1.1-2.3 1.9-.35.2-.7-1.4-.5-2.05-1.35-2.7-.9-.75-3.75-.5-3.2.2-3.25.2-.5-.15-1.5 1.3-1.4 2.05-1.95 2.55-.8.8-3.15 1.1-2.85.4-3.85.85-1.6.75-2.45-.25-.6-.75-.65-2.2 0-.65 1.6-2.25 1.5-1.5 1.2-2.4-.35-1.05-2.95-2.9l-2.5-1.6q-4.95-.15-5.85-.05-.5.05-.1-2 .5-2.5.3-3.1-.25-.75-2.25-.8-2.35-.05-2.4-.05-.4-.2-.45-1.05.05-1.05 0-1.65 0-.55-1.15-.8-1.4-.3-1.95-1-.7-.95-.7-2.8 0-1.45.4-2.75.15-.5-1.7-.3-2.2.2-2.6-1.25-.45-1.6-2.9-2.4l-2.3-.45q-.75-.1-3.05 0-1.45.05-2.1-2.25l-.4-2.35q-1.75-1.65-3.85-3.4-4.1-3.4-5.65-3.6-1.45-.2-2.15 2.4-.95 3.25-1.1 3.45-.6.7-2.1.25l-1.35-.6q-.4-1.9-.15-2.75.25-.85-4.25-.1-.6-4.8-1.45-5.4-.55-.35-2.45 0l-1.85.4q-.15.5-.5.65-.8.4-2-1.15-1.4-1.75-8-2.75-6.45-.95-7.65.05-1.1.9-3.7 1.95-2.55 1.05-3.95 1.15-.95.1-2.85 3.05-1.7 2.6-1.95 2.15-.35-.6-1.55-.4-1.25.35-1.65.35-.35.05.15 1.25.6 1.45.4 2-.4 1.1-2.2.05l-.2 3.15q-1-.8-2.75-1.3-1.1-.3-1.15 2-.05 1.2.15 2.4-2.1-1.1-4.2-.9-1.3.15-1.15 1.75.05.8.4 1.6l-5.8-1.05-.9-4.3q-.75-.15-1.45-.4-1.4-.5-1.1-1.1.3-.6-.5-1.9-1.05-1.6-1.45-2.35-.55-1.05-3.15-1.1-2.25-.05-4.45.6-2.25.65-3.65.75-1.9.1-3.4-.6-1.35-.65-.85-4.15l.75-3.35-4.9-.45q-.2.4-.85.85-1.3.9-3.55 1.3t-3.1-2.05l-.45-2.5-6.15-1.35.25-.05q1.3-1.65.45-2.7l-1.1-.95q-3.95-2.4-10.3-4.05l-5.55-1.2-5.5.25q-.95-1.75-1.5-2.45-1.5-2-2.8-1.6-1.3.4-1.8 3.3-.2 1.45-.45 3-.25.15-1.65-.6-1.8-1-2.7-1.25-1.15-.35-2.1.9l-.75 1.35.35 2q.15 2.05-.65 2.55t-1.75-1.2q-1-2.1-1.5-2.75-.6-.85-2.8-1.3-.6-.15-3.2-.5-.75-.1-1.45 1.25-.95 1.9-1.85 2.7-1.95 1.65-2.75 2.2-1.35.85-1.9.4-.8-1.45-1.75-2.3-1.8-1.65-4.9-.6-3.1 1.05-5.25-1.35l-1.55-2.6q1.25-.95 1.7-2.55.55-1.7-.7-2-1.1-.3-3.35-.2l-2 .1q.05-4.35-2.1-4.85l-2.15.4q-3.15 2.5-4.6 4.15-.9 1.05-9.75.4l-8.65-.85q-5.25.4-18.75.2l-12.3-.35q.15-1.05-1.5-2.25l-1.65-1-.85-4.35q-1.25.85-4.7 1.85-3.4 1-4.6 1.9-1.7 1.3-3.15.3-1.4-.95-.85-2.85.75-2.55-1.35-7.8-.55-1.45-2.85-2.15-1.8-.6-3.6-.55-.35 0-3.8.95-2.8.75-4.1.2-2.05-1.6-3.05-1.9-1.75-.6-3.35 2.85t-4.5 3.6q-.9 0-3.7-.85-.4-.15-.55-1.2-.2-1.75-.4-2.25-.95-3.15-5.65-3.15-4.85 0-6.65 2.55-.9 1.25-.85 2.5l.45 2.1q-.1 2.2-2.9 2.8-2.8.6-2.9-.55l.5-1.3q1.1-1.1 1.1-1.55 0-.65-1.75-1.15-1.4-.4-7.35-2.85-5.6-2.3-5.85-2.3-.65 0-.7-.45-.15-1.05.5-5.45.65-4.5-1.5-5.9-1.75-1.2-4.1-.1-2.85 1.3-4.3 5.25-.7 1.95-2.8 3.85-2.5 2.4-4.1 1-1.5-1.3-3.45-4.45l-1.7-2.85q-.2-.2.55-.55.9-.35 1.15-.5 1.1-.4 1.9-.85 1.45-.9 1.4-2.25-.05-1.45-2.7-.85-2.4.5-3.7 1.5-1.2.95-3.7.85-2.7-.15-2.85-1.8-.1-1.55-2.05-3.1l-1.9-1.3q-2.4.75-5.65.15-3-.55-3.2-1.4-.2-.85-1.9-1.1-1.85-.3-3.5.6-1.35.75.6 2.55 2.3 2.1 2.25 2.5-.2 1.6-2.7 1.7-2.75.15-3.9-3.9-1.1-3.85-3.3-5.55l-1.95-.95-.85-4.55q-1.55 1.2-2.8.75l-.95-.75q-.55-.9-1.5-1.8-1.9-1.75-3.8-1.6-1.95.15-1.9-.9.5-1.95.7-3.6.25-2.05-.85-2.1l-1.2.4q-.35 1.85-1.5 1.8l-1.1-.45q.15-.5.05-1.85-.15-1.5-.6-2-.4-.45-1.7.8-.65.65-1.25 1.35-1.25.8-1.45-.6l.05-1.55-4.6-1q-.6-.25-.95-.15-.65.25-1 2.25t-1.95 2.8q-.75.35-1.5.35.95-1.05.3-2.3l-.85-1.05-2.65-.25q-1 .05-1.5-1l-.2-.95q.091-.244 1.65-.6 2.1-.5 2.8-1.05.85-.65.3-1.05l-.7-.3-4.55.15q-.15-1.05-.8-1.55-.6-.45-1.2-.2-.45.2-.75 3.5-.1 1.65-.15 3.25h-2.4q-.15.2-.3-.05-.35-.55-.35-2.95 0-2.4-1.25-3.2l-1.25-.3q-.25-.45-1.4.5-1.05.9-1.8 2-.55.8-7.3.8-6.85-.2-7.25-.2-.5 0-.65-1l-.1-1q-.35-2.9-1.6-3.5-1.45-.15-2.05-.3-.6-.15-.1 1.75.65 2.2.3 2.65-.7.9-2.75-.15-.3-.9-.55-1.9-.5-1.9-.3-2.1.35-.3-1.35-.4-1.7-.1-2.45.4-.7.45.75 2.65.75 1.1 1.6 2.1l-6.05-.4q.25-3.1-.6-3.15-2-.1-3.55-1.7-.9-.9-.3-1.25.05 0 2.2-.55 1.05-.25 2.45-1.1 1.55-.95 2.55-1.3 1.25-.4-.65-1.75-2.35-1.6-2.35-1.65-.15-.5-2.9-.35-2.8.15-2.8.95 0 .6 1.65 2.15.8 1.25-2.75 1.2-3.6-.05-4.05-1.9l.25-1.85q1.45-2.65 2.3-3.8.65-.85-.2-4.1-.85-3.25-1.8-3.55-.6-.2-3.25.1-2.55.3-3.15.05-1-.4-2.6.3-1.75.75-1.85 2.2-.05 1.05-.1 2.5-.15.9-.85.85-.55 0-1.9-1.15-1.35-1.1-1.75-1.05-.35.05.05 1.1.5 1.2-.1 1.6-1.1.75-3.65.2l.15 1.1q.1 1.25-.25 1.95-.4.9-2.25.55t-1.8-1.35q.05-1.9 1.55-3.15.75-.65.35-1.95-.4-1.3-1.1-1.25-1.4-.1-2.4-.15-1.9-.1-2.6.4-.55.4-1.3-.9-.95-1.5-2.1-1.45-1.2.05-.95 1.65.3 1.95-.15 2.5-1.05 1.3-.95 2.55l3.2 3.5q-1.5.8-2.45.95-.6.1-1.7-1-1-.95-1-1.3-.25-4.4-1-5.55-.45-.7-2.5.65-1 .7-1.95 1.5l-1.8 1.15q-1.5 1.25-.3 2.05 1.25.8.9 1.9-.4 1.1-.85.85l-6.8-4.75q-1.75-.95-3-2.05-.8-.7-1.6.5-.45.6-1 1.85-.35.55-1.15.15-.75-.35-1.35-1.25-.45-.7 0-1.3.85-.9 1.35-1.8.7-1.2-.4-2.3-.75-.8-3.75-2.55-2.3-1.35-5.6-.55-2.8.65-3.35 1.55-.3.5-1.3.4-.9-.1-1.05-.4-.1-.2-.75 0l-.65.25-.75.85q-.85.95-1.55 1.4-1.1.75-3.8.15l.5.65q.35.75-.6 1.3-1.5.9-9.45.9l-1.45-1.55-2.5-.6q-.95-.25-1.1-.9v-.6q-3.5-3.6-4.3-4.2-.5-.35-1-.4l-.45.05-.55 1.1q-1.35-.55-2.8-.75-2.9-.45-3.35 1.2-.75 2.85-3.75 2.15-.65-.15-.35-2.05.45-1.9.45-2.05 0-.2-.95-.9-1-.75-1.7-1.05-.55-.2-.75.7-.25 1.3-.5 1.55-.65.7-4 .25-.55-1.95-1.6-2.5-.5-.25-1.25 1.4-.8 1.9-1.5 2-1 .15-1.95-.2-.9-.3-.9-.65 0-1-2.1-4.1-.85-1.25-2.55-.55l-1.55.95.25 2.05q.05 2.15-1 2.75-1.05.65-2.4 2.25-.7.8-1.15 1.45l-1.25 3.95-2.85-.45q.2-1-.65-2.3-.55-.8-2.05.1-.75.5-1.4 1.1l-3.15.8-.5.95q-.85 1-2.45 1.1-1.75.1-2.9-.55-.9-.5-1.15-1.25-.15-.45 2-.4 2.2.1 2.25-.1.2-1.35.4-2.4.35-2 .95-1.85.5.15 1.7 1.1 1.15.55 1.9-1.3.75-1.8-1.65-5.35-2.8-3.6-3.2-4.5-.55-1.25-1.3-1.15-.75.05-.65 1.05.15 1.65-.2 4.35-.4 3.45-1.35 3.4-1.15-.05-2.5-1-1.45-1.05-1.2-1.8.2-.65 1.5-2.2l1.2-1.4q-1.15.2-2.35.2-2.4-.05-2.5-1.25-.1-1.2-1.65-1.4-2.15.1-3.4.1-1.5.05-1.55 3.05-.05 1.55.1 3.85-.1.7-1.65 1.05-1.75.25-2.25.35-1.1.25-3.75.35-3.3.2-4.85-.15-1.35-.3-2.05-.8-.5-.3-.6-.25-3 1.7-3.25.75-.65-2.65-1.5-2.95-1.35-.45-.95 3.15.15 1.5-1.25 2.25-.8.4-2.55.7-.45.1-3.3.05-2.5-.05-3.4.3-1.35.55-1 1.8.35 1.3 2.55 1.6 2.1.3 1.65 1.45-.45 1.15-1.4.9-.6-.15-2.9-.15h-2.15q.75 3.15.35 3.5-.1.1-1.7-.05-1.5-.1-1.8.5-.5 1.05 0 2.35-1.15-.2-2.35-.3-2.4-.25-2.7.05-.3.3.75 2.7.5 1.2 1.05 2.35l-2.4.55-1.45 1.1q-1.35 1.15-1.15 1.5.3.55 4.95 1.8.8.2 1.4 2.2.3 1.1.75 3.4.35 1.3-.2 1.75-.2.2-1.3.4-1 .2-2.25-2.5l-2.1-3.1q-.25.05-.6.2-.75.3-1.3.9-.9 1-2.3 2l1.05.55q1.2.5 2.25.45 1.05-.05 2 2.55.5 1.35.75 2.65-.4.05-.9.2-.95.3-1.3.9-.55 1-2.95 1.4l-.9-3.6q-.3-.25-.65-.35-.7-.2-.9.5-.35 1.1-1.75 2.6l.65.8q.75 1.05 1.3 2 .6 1.05-.05 2.85-.5 1.5-1.55 2.7-1.2 1.4-4.05.75l-.75 2.05-2.35.2-.25.65q0 .75 1.35 1.15 1.6.45 2.2 2.35.6 1.7.05 3.5-.45 1.4-1.9 1.75l-1.35.1-.2 1.35q-.25 1.55-.6 2.4-1.05 2.65-4.45 2.5-1.7-.05-3.05 1.4-.65.7-1 1.45L0 946.8h1123.8l-.05-420.35q-.2-1.1-.6-1.9-.25-.5-1.75.1-1.05.4-1.9.95l-1.2 1.5q-1.05 1.35-2.15 1.75-1.15.4-.95-1.1l.4-1.55-.55-3q-.1-.6-4-.35-3.05.2-4.25.45-.3.05-.35 1.8-.15 1.95-.25 2.2-.15.3-1.4.65-1.55.45-2.3.9-1.1.65-1.7-.05-.6-.65.1-1.25.5-.4-1.3-2.45-2.05-2.35-2.15-2.75-.2-.7-3.35-.5-3.8.2-3.95.15-.6-.15-2.4 2.15-2.65 3.35-2.85 3.55-1 1-2.5.45-1.35-.75-1.5-.7-.15.1-.7 1.35l-.5 1.2-3.15.5-1.9-2.55q-.5-.65-1.9-.25-1.5.45-2.5 1.7-.95 1.15-3.45 1.9-2 .6-3.55.65-1 .05-1.75-1.7-.6-1.45-.55-2.25.05-.55-.95-1.75-1.05-1.3-1.8-1.35-.4-.05-2.65.3-1.95.3-2.25.05l-2.65-2.4q-4.65-.35-7.2 1.9-2 1.8-1.5 3.2.3.85-.15 3.05-.4 2.1-.8 2.6-.45.55-8.5-.6-.75-.1-1.55-.15-1.7-.05-2.15.5-.45.5-3.25.2-3.05-.3-3.2-.25-.85.25-.65-2.8.05-.65-1.3-.2-1.3.5-1.45 1.45-.2 1.35-1.8 1.9-7.55-.8-8.7-.45-.65.2-.85-2-.2-2.8-.3-3.05-.3-.75-1.55-1.3-1-.45-1.85-.55-.5-.05-2.05-.85l-1.5-.8q-1.55 1.6-2.1 1.65-.4.05-1.25 1.05t-1.3 1.85q-.4.75-2.45.85-2 .05-2.95-.45-.85-.45-2.3.15-1.45.55-2.7 1.8-1.2 1.2-1.85-.9-.65-2.1.35-3.05.75-.7.35-2.65-.5-2.45-.5-2.55.15-.95-.95-1.1-1.15-.2-2.25 1.35-1 1.4-2.2-.8l-1-2.45q-2.75-2.3-5.6-1.25-2.2.8-2.8 2.4-.3.85-2.1 1.65-2 .75-2.45.95-.8.35-.1 1.75.7 1.45 2.35 1.6 1.65.15 1.65 1.15 0 .8-1.1 1.95-.8.8-2.1.65l-1.2-.35-.75 4.15q-2.95-.5-6-.95-6.1-.9-6.7-.65-1.2.5-2.1-.35-1.1-1 1-3.25 2-2.15.95-5.2l-1.45-2.6q-4 .5-4.3-.7-.2-.85-2.2-1.25-1.95-.4-2.4.2-1.8 2.65-2.6 1.2-.45-.8-2.05.05-2.45 1.2-3.8 1.35-1.8.2-1.7 2.5.2 3.95-.05 4.9-.65 2.45-2 2.2-1.15-.25-2.55-2.45-1.05-1.7-5.55-2.3l-4.3-.25q-.7 0-1.5.15-1.55.3-1.95 1.15-.5 1.1-1.8 1.1-1.4 0-2.5-1.3-.85-1-2.25-2-1.2-.8-1.35-1.1-.25-.6-1.65.2-1.45.85-1.6 2.1-.15 1.2-2.6 1.2-1.95.05-3.4-.45-.75-.25-2.5-1.7l-1.6-1.4q-2.8-1.05-3.45-.65-.6.35-1.5.5-1 .2-.8-.3.25-.55-.6-1.8t-2-1.8q-.9-.45-1 .7-.1 1.75-.3 2.1-.35.6-3.55.7-3.2.05-3.6.55-.4.5-4.7.05-4.45-.45-5.15.1-.85.65-1.9-1.3l-.9-2.1q.1-2.55-1.25-2.75-.85-.1-2.85 1.75l-1.85 1.9q-.85.65-2.4-.25Z" />
  <g id="shooting_star_core">
    <path fill="#FFF"
      d="M991.7-73.05q-1.9.45-2.3 1.15-.3.6-.65 1.25-.2.45.15.8.4.4 1.05.6.7.25 1.15.05.35-.2 1-1.2.6-.95.7-1.05.3-.3.65-.95.45-.8.1-.95-.9.1-1.85.3Z" />
    <path fill="none" stroke="#000" stroke-linecap="round" stroke-linejoin="round" stroke-opacity="0"
      d="M993.55-73.35q-.9.1-1.85.3-1.9.45-2.3 1.15-.3.6-.65 1.25-.2.45.15.8.4.4 1.05.6.7.25 1.15.05.35-.2 1-1.2.6-.95.7-1.05.3-.3.65-.95.45-.8.1-.95Z" />
  </g>
  <g id="shooting_star_tail">
    <path fill="#C1D1E0"
      d="M991.9-72.95q1.55-.4 1.65-.2l-1.4 2.7q-.1.2 8.45-5.75 8.55-5.95 10.15-7.15L1051-113.1l-41.65 27.45L990.3-72.6l1.6-.35Z" />
    <path fill="none" stroke="#000" stroke-linecap="round" stroke-linejoin="round" stroke-opacity="0"
      d="m990.3-72.6 1.6-.35q1.55-.4 1.65-.2l-1.4 2.7q-.1.2 8.45-5.75 8.55-5.95 10.15-7.15L1051-113.1l-41.65 27.45L990.3-72.6Z" />
  </g>
  <path id="star_13" fill="#C1D1E0"
    d="M212.55 68.15q-.25.05-.5.2-.2.15-.4.4-.15.2-.25.45t-.15.5q0 .3.05.55.05.3.2.5.1.25.3.45l.2.2q.25.15.5.25l.5.1q.3 0 .55-.05l.5-.2q.25-.15.4-.35.2-.2.35-.45.1-.25.15-.5.05-.3 0-.55-.05-.25-.15-.5-.1-.25-.3-.45-.15-.25-.4-.35-.25-.15-.5-.25-.25-.05-.55-.05-.25 0-.5.1Z" />
  <path id="star_12" fill="#C1D1E0"
    d="M445.8 138.2q.2-.2.35-.45.1-.25.15-.5.05-.3 0-.55-.05-.25-.15-.5-.1-.25-.3-.45-.15-.25-.4-.35-.25-.15-.5-.25-.25-.05-.55-.05-.25 0-.5.1-.25.05-.5.2-.2.15-.4.4-.15.2-.25.45t-.15.5q0 .3.05.55.05.3.2.5.1.25.3.45l.2.2q.25.15.5.25l.5.1q.3 0 .55-.05l.5-.2q.25-.15.4-.35Z" />
  <path id="star_11" fill="#C1D1E0"
    d="M321.1 24.55q-.15-.25-.4-.35-.25-.15-.5-.25-.25-.05-.55-.05-.25 0-.5.1-.25.05-.5.2-.2.15-.4.4-.15.2-.25.45t-.15.5q0 .3.05.55.05.3.2.5.1.25.3.45l.2.2q.25.15.5.25l.5.1q.3 0 .55-.05l.5-.2q.25-.15.4-.35.2-.2.35-.45.1-.25.15-.5.05-.3 0-.55-.05-.25-.15-.5-.1-.25-.3-.45Z" />
  <path id="star_10" fill="#C1D1E0"
    d="M514.45 64.65q-.25-.15-.5-.25-.25-.05-.55-.05-.25 0-.5.1-.25.05-.5.2-.2.15-.4.4-.15.2-.25.45t-.15.5q0 .3.05.55.05.3.2.5.1.25.3.45l.2.2q.25.15.5.25l.5.1q.3 0 .55-.05l.5-.2q.25-.15.4-.35.2-.2.35-.45.1-.25.15-.5.05-.3 0-.55-.05-.25-.15-.5-.1-.25-.3-.45-.15-.25-.4-.35Z" />
  <path id="star_09" fill="#C1D1E0"
    d="M387.4 107.3q.05-.3 0-.55-.05-.25-.15-.5-.1-.25-.3-.45-.15-.25-.4-.35-.25-.15-.5-.25-.25-.05-.55-.05-.25 0-.5.1-.25.05-.5.2-.2.15-.4.4-.15.2-.25.45t-.15.5q0 .3.05.55.05.3.2.5.1.25.3.45l.2.2q.25.15.5.25l.5.1q.3 0 .55-.05l.5-.2q.25-.15.4-.35.2-.2.35-.45.1-.25.15-.5Z" />
  <path id="star_08" fill="#C1D1E0"
    d="M648.85 24.2q-.25-.15-.5-.25-.25-.05-.55-.05-.25 0-.5.1-.25.05-.5.2-.2.15-.4.4-.15.2-.25.45t-.15.5q0 .3.05.55.05.3.2.5.1.25.3.45l.2.2q.25.15.5.25l.5.1q.3 0 .55-.05l.5-.2q.25-.15.4-.35.2-.2.35-.45.1-.25.15-.5.05-.3 0-.55-.05-.25-.15-.5-.1-.25-.3-.45-.15-.25-.4-.35Z" />
  <path id="star_07" fill="#C1D1E0"
    d="M166.75 20.1q-.25.05-.5.2-.2.15-.4.4-.15.2-.25.45t-.15.5q0 .3.05.55.05.3.2.5.1.25.3.45l.2.2q.25.15.5.25l.5.1q.3 0 .55-.05l.5-.2q.25-.15.4-.35.2-.2.35-.45.1-.25.15-.5.05-.3 0-.55-.05-.25-.15-.5-.1-.25-.3-.45-.15-.25-.4-.35-.25-.15-.5-.25-.25-.05-.55-.05-.25 0-.5.1Z" />
  <path id="star_06" fill="#C1D1E0"
    d="M838.95 27.65q-.25-.05-.55-.05-.25 0-.5.1-.25.05-.5.2-.2.15-.4.4-.15.2-.25.45t-.15.5q0 .3.05.55.05.3.2.5.1.25.3.45l.2.2q.25.15.5.25l.5.1q.3 0 .55-.05l.5-.2q.25-.15.4-.35.2-.2.35-.45.1-.25.15-.5.05-.3 0-.55-.05-.25-.15-.5-.1-.25-.3-.45-.15-.25-.4-.35-.25-.15-.5-.25Z" />
  <path id="star_05" fill="#C1D1E0"
    d="M1031.35 126.45q.1-.25.15-.5.05-.3 0-.55-.05-.25-.15-.5-.1-.25-.3-.45-.15-.25-.4-.35-.25-.15-.5-.25-.25-.05-.55-.05-.25 0-.5.1-.25.05-.5.2-.2.15-.4.4-.15.2-.25.45t-.15.5q0 .3.05.55.05.3.2.5.1.25.3.45l.2.2q.25.15.5.25l.5.1q.3 0 .55-.05l.5-.2q.25-.15.4-.35.2-.2.35-.45Z" />
  <path id="star_04" fill="#C1D1E0"
    d="M884.3 27.65q-.25-.05-.55-.05-.25 0-.5.1-.25.05-.5.2-.2.15-.4.4-.15.2-.25.45t-.15.5q0 .3.05.55.05.3.2.5.1.25.3.45l.2.2q.25.15.5.25l.5.1q.3 0 .55-.05l.5-.2q.25-.15.4-.35.2-.2.35-.45.1-.25.15-.5.05-.3 0-.55-.05-.25-.15-.5-.1-.25-.3-.45-.15-.25-.4-.35-.25-.15-.5-.25Z" />
  <path id="star_03" fill="#C1D1E0"
    d="M965.5 108.25q.2-.2.35-.45.1-.25.15-.5.05-.3 0-.55-.05-.25-.15-.5-.1-.25-.3-.45-.15-.25-.4-.35-.25-.15-.5-.25-.25-.05-.55-.05-.25 0-.5.1-.25.05-.5.2-.2.15-.4.4-.15.2-.25.45t-.15.5q0 .3.05.55.05.3.2.5.1.25.3.45l.2.2q.25.15.5.25l.5.1q.3 0 .55-.05l.5-.2q.25-.15.4-.35Z" />
  <path id="star_02" fill="#C1D1E0"
    d="M1050.55 92.7q-.15-.25-.4-.35-.25-.15-.5-.25-.25-.05-.55-.05-.25 0-.5.1-.25.05-.5.2-.2.15-.4.4-.15.2-.25.45t-.15.5q0 .3.05.55.05.3.2.5.1.25.3.45l.2.2q.25.15.5.25l.5.1q.3 0 .55-.05l.5-.2q.25-.15.4-.35.2-.2.35-.45.1-.25.15-.5.05-.3 0-.55-.05-.25-.15-.5-.1-.25-.3-.45Z" />
  <path id="star_01" fill="#C1D1E0"
    d="M969.7 80q-.05-.25-.15-.5-.1-.25-.3-.45-.15-.25-.4-.35-.25-.15-.5-.25-.25-.05-.55-.05-.25 0-.5.1-.25.05-.5.2-.2.15-.4.4-.15.2-.25.45t-.15.5q0 .3.05.55.05.3.2.5.1.25.3.45l.2.2q.25.15.5.25l.5.1q.3 0 .55-.05l.5-.2q.25-.15.4-.35.2-.2.35-.45.1-.25.15-.5.05-.3 0-.55Z" />
</svg>