<svg xmlns="http://www.w3.org/2000/svg" xmlns:xlink="http://www.w3.org/1999/xlink" preserveAspectRatio="none"
  width="960" height="640">
  <defs>
    <path fill="#E8E8E8"
      d="m271.2 582.65 32.15-.6h21.6q10.6-10.2 28-27.6 22.55-22.5 28.7-28.55 44.393-43.78 58.55-59.7.424-.423.8-.85 3.68-4.201 5.05-6.25-1.37 2.049-5.05 6.25l5.5 43.35-.45 73.4h22l13.55-19.65-26.65-25.2q3.8-10.8 15.15-53l10.55-40.05-10.55 40.05q-11.35 42.2-15.15 53l26.65 25.2-13.55 19.65h122l-23.35-22.9 26.65-29.9-42.1-90.25 42.1 90.25-26.65 29.9 23.35 22.9h12.15q-1.613-41.987-2.7-71-1.414-37.53-1.95-53.35.536 15.82 1.95 53.35l32.65 71 40.65.5q-17.05-35.9-34.45-72.25-34.7-72.7-36.15-75.05-1.5-3.4-5.1-6.75-7.2-6.65-17.75-6.35-6.65 1.2-14.25 2.9-15.25 3.3-20.1 5.6l.2 3.5q-2.3 2.9-6.4 5.35-8.2 4.95-17.3 2.65-3.85-.75-9-2.3-10.2-3.1-16.35-6.9v-6.55L468.5 413.3q-3.7-2.2-8.95-3.45-10.5-2.45-18.15 2.5l-170.2 170.3Z"
      id="a" />
    <path fill="#97D6D8" d="M545.2 434.2q-3.45 5.4-11.3 7.95-15.75 5.1-37.75-9.15l5.55 149.1h56.6l-13.1-147.9Z"
      id="c" />
    <path fill="#D3CABA"
      d="M533.45 441.25q8-2.25 11.75-7.05l-1.05-21q-16.35 4.8-31.95-.35-4.85-1.65-9.05-4.05l-3.25-2.1-3.75 19.75V433q21.3 12.7 37.3 8.25Z"
      id="e" />
    <path fill="#AAD3EA"
      d="M590.4 87.35v-7.8l-13 23.5q-5 8.45-24.7 26.05l-18.75 15.95-15-19.5q-4.7-6.55-18.3-19.7l-12.7-11.8q-6.85-7.5-19.6-24.5l-11.4-15.5q3.45 10 6.8 38.25 1.7 14.15 2.7 26.25 1.25 11.25.5 29-.35 8.9-1 15.5-16.85 2.2-46.1-1.25l-25.9-3.85 33 68.5q-3.1.3-15.1 6.2l-11.4 5.8Q396.1 241.9 381.6 249l-13.65 6.45 57.5 26.5-44 36 44 17-11.5 27.5 39.5-1-6 24.5 165-15q-5.95-9.7-7.3-15.3-.45-1.75-.35-2.9l.15-.8 18 .5-15-19.5q1.9-1.55 4.15-7.95l1.85-6.05q6.5-2.5 29.5-12.5-10.9-4.05-21.3-16.45-3.3-3.85-6.1-8.1l-2.15-3.45q-1.85-6.55 17.4-22.2 9.6-7.8 19.6-14.3-19.05-4.05-31.95-15.95-4-3.7-6.95-7.75l-2.1-3.3q4.4-5.3 19.9-31.45 7.75-13.05 14.6-25.05-7.5 4.05-30.75 7.45l-21.75 2.55q-2.2.3-3.3-1.55l-.7-1.95q.3-4.35 2.95-16.6l2.55-11.4q.3-4.35-.55-17.3l-.95-12.1q-1.25-10.3-1.5-20.2Z"
      id="g" />
    <path fill="#D3CABA"
      d="M556.45 172.7q-9.8-4.45-20.5-4.8l-8.75.5q-18.6.95-35.25 8.8-5.2 2.45-9.6 5.35L479 184.9q-17.9 15.6-24.65 33.65-3.4 9-3.2 14.9-3.6 17.4-2.45 49.15.55 15.85 1.85 28.25.85 10.55 6.55 36.8 1.65 10.45 8.75 24.4 3.6 6.95 6.8 11.8 16.05 19.75 37.8 27.5 10.9 3.9 18.55 3.8 15.05-.4 29.1-6.65 7.05-3.1 11.05-6.15 16.9-12.6 23.8-28.8 2.2-5.05 3.1-9.85l.45-3.8q1.2-4.4 2.5-27.1l1.95-52.35q.6-18.95-1.1-33.4L598 236.4q-2.852-13.773-7.35-24.8-2.014-4.996-4.4-9.45-11.146-20.987-29.8-29.45Z"
      id="i" />
    <path fill="#E8E8E8"
      d="M470.05 256.65q-1.45 5-1.75 9.2 1.2 21.65 16.85 28.75 7.8 3.55 15.35 2.75 23.45-.95 31.35-16.75 3.9-7.9 3.15-15.6-3.5-19.4-15.3-26.2-7.15-4.05-18.5-3.6-4.6-.5-7.55.15-4.95 1-14.95 7.6-5.75 3.8-8.65 13.7Z"
      id="l" />
    <path fill="#0E0E0E"
      d="M512.1 264.1q-.2.25-.5 1.1-.2.65-.35 1.25-.1 1.05.35 1.6.4.4 1.4.65 1.5.5 2.05.6 1.4.1 2-.65.4-.55.5-1.85 0-1.15-.15-1.45-.25-.55-.95-.95-1.15-.85-2.15-1.05-1.5-.25-2.2.75Z"
      id="n" />
    <path fill="#D3CABA"
      d="M473.35 249.75q-5.75 9.7-5.35 16.05l25.35-2.15q28-1.65 41.35 1.05-.3-2.4-1.25-5.95-1.85-7.15-4.95-12.9-1.35-2.2-3.9-5.05-5.1-5.7-11.1-9.05-3.85-1.25-11-1.7-3.85.5-8.7 2.15-9.7 3.35-14.65 9.15-2.95 3.55-5.8 8.4Z"
      id="o" />
    <path fill="#652122"
      d="m539.65 341.75-7-.15q-26.6.8-35.85 7.75-2.9 2.15-3.7 4.7-.4 1.25-.25 2.1.1 3.65 4.35 5.6 2.1 1 4.2 1.25 3.7.75 10.65.45 3.5-.15 6.2-.45 7.95-1.55 22.95-2.75 3.35-.15 9.95.95 3.95.65 15.8.9 7.1-.45 9.85-4.25 1.35-1.9 1.3-3.7-.4-8.05-22.95-11.1-7.1-.95-15.5-1.3Z"
      id="s" />
    <path fill="#E8E8E8"
      d="M571.75 230q-.2-.002-.4 0-.227-.006-.45 0-.093-.002-.2 0h-.1q-.625.012-1.3 0-.638.048-1.3.1h-.95q-.2-.005-.4 0-5.96-.027-12.2 3.65Q541 241.8 539.2 263.7l.35 2.85q.6 3.6 2.15 7 4.85 11 16.8 16.65l2.95.5q1.229.14 2.45.2 1.288.063 2.55.1h.4l2.2-.1q12.2-.8 20.7-8.1l1.6-1.05q1.9-1.5 3.55-3.75 5.3-7.25 6.05-19.3.35-3.45-.65-7.95-1.95-9.05-8.65-14.25-1.6-1.9-5.4-3.65-4.612-2.1-10.45-2.7-2.025-.063-4.05-.15Z"
      id="x" />
    <path fill="#0C0F0C"
      d="M583.9 264q.35-.35.25-.85-.05-.5-.5-.85-.05-.05-.15-.05.2-.2.3-.4.15-.25.05-.7-.05-.7-1.05-.95-.7-.25-1.3.05-.25-.1-.5-.1-.35-.05-.6 0-.3-.05-.7.1-.65.15-.85.65l-.05.4v.2q-.85.45-.65 1.2v.05l-.05.15.05.4q.15.4.6.7.5.3 1.1.3.55-.05 1-.35.1-.05.2-.15.2.35.65.55.5.25 1.15.15.65-.1 1.05-.5Z"
      id="z" />
    <path fill="#D3CABA"
      d="M600 247.3q-4.2-12.05-16.15-15.95-3.15-1.65-8.7-2.05-11.05-.7-22.95 5.85-3.7 2.8-7.2 7.85-6.95 10.1-5.75 21.3l23.8-3.1q24.75-3.05 38.8-2.6.3-5.25-1.85-11.3Z"
      id="A" />
    <path fill="#D3CABA"
      d="M436.4 325.9q-.35 1.3-.4 2.15.25 10.5 10.3 16.05 5 2.75 9.95 3.4l-5.7-36.65q-8.45 2.45-12.35 10.05-1.2 2.4-1.8 5Z"
      id="C" />
    <path fill="#D3CABA"
      d="m600.45 303.65-2.05 33.8q4.15-1.1 8.2-4.7 5.9-5.25 6.55-12.7.65-7.15-5.95-12.5-2.1-1.65-4.6-2.95l-2.15-.95Z"
      id="E" />
    <path fill="#AAD3EA"
      d="M483.45 225.3q-.95-.1-2.95.15-1.25.15-2.55 1.15l-1.05.95-.9 1.4q-.65 1.9.9 4.35l1.65 1.2q2.25 1.5 5.5 2.9 10.25 4.55 25.85 6.75l9 1.1q10.05 1 15.15.35l1.45.1q1.95-.1 4.45-1.25 7.95-3.6 18.3-16.05l1.7-1.95q2.25-2.4 5.15-4.6 9.35-7.1 21.8-9.65l3.6-1q3.85-1.55 5.25-4.1.2-.6-.35-1.45-1.1-1.6-4.8-2.65-4.05-.75-9.55-.25-11.05 1.05-18.5 7.6-2.75 1.9-6.9 5.55-8.25 7.4-15.05 16.35-1.35 1-3.6 1.95-4.6 1.9-9.3 1.75-4.5-.05-12.3-1.4-15.55-2.7-31.95-9.25Z"
      id="G" />
    <path id="b" stroke="#000" stroke-width="1" stroke-linejoin="round" stroke-linecap="round" fill="none"
      d="m599.5 511.1 32.65 71 40.65.5q-17.05-35.9-34.45-72.25-34.7-72.7-36.15-75.05-1.5-3.4-5.1-6.75-7.2-6.65-17.75-6.35-6.65 1.2-14.25 2.9-15.25 3.3-20.1 5.6l.2 3.5q-2.3 2.9-6.4 5.35-8.2 4.95-17.3 2.65-3.85-.75-9-2.3-10.2-3.1-16.35-6.9v-6.55L468.5 413.3q-3.7-2.2-8.95-3.45-10.5-2.45-18.15 2.5l-170.2 170.3 32.15-.6h21.6q10.6-10.2 28-27.6 22.55-22.5 28.7-28.55 44.393-43.78 58.575-59.675.399-.448.775-.875 3.68-4.201 5.05-6.25m144 123h12.15q-1.613-41.987-2.7-71-1.414-37.53-1.95-53.35m-46.3-18.7 42.1 90.25-26.65 29.9 23.35 22.9h-144l.45-73.4-5.5-43.35m39.65-21.15-10.55 40.05q-11.35 42.2-15.15 53l26.65 25.2-13.55 19.65" />
    <path id="d" stroke="#000" stroke-width="1" stroke-linejoin="round" stroke-linecap="round" fill="none"
      d="m496.15 433 5.55 149.1h56.6l-13.1-147.9q-3.45 5.4-11.3 7.95-15.75 5.1-37.75-9.15Z" />
    <path id="f" stroke="#000" stroke-width="1" stroke-linejoin="round" stroke-linecap="round" fill="none"
      d="M496.15 433v-6.55l3.75-19.75 3.25 2.1q4.2 2.4 9.05 4.05 15.6 5.15 31.95.35l1.05 21q-3.75 4.8-11.75 7.05-16 4.45-37.3-8.25Z" />
    <path id="h" stroke="#000" stroke-width="1" stroke-linejoin="round" stroke-linecap="round" fill="none"
      d="m612.45 370.95-165 15 6-24.5-39.5 1 11.5-27.5-44-17 44-36-57.5-26.5L381.6 249q14.5-7.1 18.85-10.55l11.4-5.8q12-5.9 15.1-6.2l-33-68.5 25.9 3.85q29.25 3.45 46.1 1.25.65-6.6 1-15.5.75-17.75-.5-29-1-12.1-2.7-26.25-3.35-28.25-6.8-38.25l11.4 15.5q12.75 17 19.6 24.5l12.7 11.8q13.6 13.15 18.3 19.7l15 19.5 18.75-15.95q19.7-17.6 24.7-26.05l13-23.5v7.8q.25 9.9 1.5 20.2l.95 12.1q.85 12.95.55 17.3l-2.55 11.4q-2.65 12.25-2.95 16.6l.7 1.95q1.1 1.85 3.3 1.55l21.75-2.55q23.25-3.4 30.75-7.45-6.85 12-14.6 25.05-15.5 26.15-19.9 31.45l2.1 3.3q2.95 4.05 6.95 7.75 12.9 11.9 31.95 15.95-10 6.5-19.6 14.3-19.25 15.65-17.4 22.2l2.15 3.45q2.8 4.25 6.1 8.1 10.4 12.4 21.3 16.45-23 10-29.5 12.5L612.1 325q-2.25 6.4-4.15 7.95l15 19.5-18-.5-.15.8q-.1 1.15.35 2.9 1.35 5.6 7.3 15.3Z" />
    <path id="j" stroke="#000" stroke-width="1" stroke-linejoin="round" stroke-linecap="round" fill="none"
      d="m527.2 168.4 8.75-.5q10.7.35 20.5 4.8 18.654 8.463 29.825 29.475 2.36 4.429 4.4 9.425 4.473 11.027 7.325 24.8l1.85 10.65q1.7 14.45 1.1 33.4L599 332.8q-1.3 22.7-2.5 27.1l-.45 3.8q-.9 4.8-3.1 9.85-6.9 16.2-23.8 28.8-4 3.05-11.05 6.15-14.05 6.25-29.1 6.65-7.65.1-18.55-3.8-21.75-7.75-37.8-27.5-3.2-4.85-6.8-11.8-7.1-13.95-8.75-24.4-5.7-26.25-6.55-36.8-1.3-12.4-1.85-28.25-1.15-31.75 2.45-49.15-.2-5.9 3.2-14.9Q461.1 200.5 479 184.9l3.35-2.35q4.4-2.9 9.6-5.35 16.65-7.85 35.25-8.8Z" />
    <path id="k" stroke="#000" stroke-width="1" stroke-linejoin="round" stroke-linecap="round" fill="none"
      d="m531 302.55 1.8 4.7q2.2 5.55 4.45 9.9Q544.4 331.1 549 327.9q2.85-1.5 3.95-7.25 2.25-11.55-6.3-32.95" />
    <path id="m" stroke="#000" stroke-width="1" stroke-linejoin="round" stroke-linecap="round" fill="none"
      d="M468.3 265.85q.3-4.2 1.75-9.2 2.9-9.9 8.65-13.7 10-6.6 14.95-7.6 2.95-.65 7.55-.15 11.35-.45 18.5 3.6 11.8 6.8 15.3 26.2.75 7.7-3.15 15.6-7.9 15.8-31.35 16.75-7.55.8-15.35-2.75-15.65-7.1-16.85-28.75Z" />
    <path id="p" stroke="#000" stroke-width="1" stroke-linejoin="round" stroke-linecap="round" fill="none"
      d="m468 265.8 25.35-2.15q28-1.65 41.35 1.05-.3-2.4-1.25-5.95-1.85-7.15-4.95-12.9-1.35-2.2-3.9-5.05-5.1-5.7-11.1-9.05-3.85-1.25-11-1.7-3.85.5-8.7 2.15-9.7 3.35-14.65 9.15-2.95 3.55-5.8 8.4-5.75 9.7-5.35 16.05Z" />
    <path id="q" stroke="#000" stroke-width="1" stroke-linejoin="round" stroke-linecap="round" fill="none"
      d="m468.6 301.3 1.85 2.7q2.65 3.15 6.5 5.3 12.25 6.9 31.8 1.35" />
    <path id="r" stroke="#000" stroke-width="1" stroke-linejoin="round" stroke-linecap="round" fill="none"
      d="m563.4 300.85 3.65 1.05q4.5 1 8.95.75 14.15-.8 22-13.95" />
    <path id="t" stroke="#000" stroke-width="1" stroke-linejoin="round" stroke-linecap="round" fill="none"
      d="M492.85 356.15q-.15-.85.25-2.1.8-2.55 3.7-4.7 9.25-6.95 35.85-7.75l7 .15q8.4.35 15.5 1.3 22.55 3.05 22.95 11.1.05 1.8-1.3 3.7-2.75 3.8-9.85 4.25-11.85-.25-15.8-.9-6.6-1.1-9.95-.95-15 1.2-22.95 2.75-2.7.3-6.2.45-6.95.3-10.65-.45-2.1-.25-4.2-1.25-4.25-1.95-4.35-5.6Z" />
    <path id="v" stroke="#000" stroke-width="1" stroke-linejoin="round" stroke-linecap="round" fill="none"
      d="M546 342.1q-2.55-.25-8.05-.2l-4.95.1 1.1 3.85q1.75 3.8 4.9 3.6 3.25-.2 5.35-3.45 1.5-2.2 1.65-3.9 4.1.4 13.25 1.75l13.15 3.35q-1.05 1.5-2.75 2.7-3.4 2.4-6.65.75-3.25-1.6-3.8-4.35l.05-2.45q-2.1 3.6-5.55 4.95l-3 .65q-2.65-.5-3.95-3.95l-.75-3.4Zm-38.1 2.9 2.5 3.75q3.05 3.5 5.75 2.3 5.15-2.3 4.6-8.7-10.55 1.8-12.85 2.65Zm21.4 16.45q.35-1.95 0-4-.65-4.05-3.85-4.3-1.4.05-3.05 1.3-3.35 2.45-4.65 8.45l5.05-.55q5.3-.6 6.5-.9 2.7-6.2 5.55-8.45 1.45-1.1 2.35-1 2.3 0 3.15 4.2.45 2.05.45 4.15 2.15-5.7 5-7.9 1.45-1.1 2.45-1.1 1.7-.2 3.25 1.55.8.85 1.25 1.75l.25 6.5q1.4-5.2 4.35-6.85 1.5-.85 2.7-.65 4.05.25 5.7 4.1.85 1.95.85 3.8.4-4.55 1.6-6.95l1.15-1.45q2.45-2.45 5.55-1.5 1.6.5 2.65 1.45.5 5.8-5.15 7.7-1.8.6-4 .75h-1.8q-1.35.35-7.6 0l-6-.4q-2.05-.35-7.3-.6l-4.9-.2q-1.45-.05-6.6.5l-4.9.6Zm-11.55 1.45q.1-1.85-.4-3.8-1.1-3.85-4.3-4.3-1 .05-2.6 1.05-3.15 2-5.9 6.85l3.6.3q4.65.25 9.6-.1Zm-19.8-14 1.7 2.6q2.2 2.4 4.4 1.2l1.5-1.4q1.45-2.2 1.15-6.05-5.85 1.5-8.75 3.65Zm6.6 13.8q-1.55.2-3.5-.1-3.95-.55-6-2.8l2.75-1.95q2.95-1.95 3.8-1.7l1 .1q1.05.15 1.45.65l.3 2.1q.25 2.35.2 3.7Zm17.05-20.3 1.15 4.1q1.65 4.15 3.95 4.3h.7q.9-.15 1.7-.75 2.55-2 3.35-8.05-7.9 0-10.85.4Z" />
    <path id="w" stroke="#000" stroke-width="1" stroke-linejoin="round" stroke-linecap="round" fill="none"
      d="M498.4 335.65q-2.4 1.4-5.3 3.8-5.85 4.8-8.5 9.65-8.6 15.5 17.6 25.8m70.35-39.5 2.85 1.2q3.35 1.55 6 3.55 8.5 6.45 6.7 14.65.4 4.1-1.8 8.25-4.4 8.4-17.3 9" />
    <path id="y" stroke="#000" stroke-width="1" stroke-linejoin="round" stroke-linecap="round" fill="none"
      d="m575.8 230.175-4.05-.175q-.2-.002-.4 0-.227-.006-.45 0-.093-.002-.175 0h-.1l-1.3.025m-5.4 60.9 2.525.075h.4m8.95-60.825q6.213.48 11.05 2.675 3.8 1.75 5.4 3.65 6.7 5.2 8.65 14.25 1 4.5.65 7.95-.75 12.05-6.05 19.3-1.65 2.25-3.55 3.75l-1.6 1.05q-8.5 7.3-20.7 8.1-1.438.087-2.8.1m2.475-60.975q-.862.007-1.725.075-.5-.05-.95 0-6.15-.15-12.6 3.65-13.45 8.05-15.25 29.95l.35 2.85q.6 3.6 2.15 7 4.85 11 16.8 16.65l2.95.5q1.424.161 2.875.225" />
    <path id="B" stroke="#000" stroke-width="1" stroke-linejoin="round" stroke-linecap="round" fill="none"
      d="M552.2 235.15q-3.7 2.8-7.2 7.85-6.95 10.1-5.75 21.3l23.8-3.1q24.75-3.05 38.8-2.6.3-5.25-1.85-11.3-4.2-12.05-16.15-15.95-3.15-1.65-8.7-2.05-11.05-.7-22.95 5.85Z" />
    <path id="D" stroke="#000" stroke-width="1" stroke-linejoin="round" stroke-linecap="round" fill="none"
      d="M456.25 347.5q-4.95-.65-9.95-3.4-10.05-5.55-10.3-16.05.05-.85.4-2.15.6-2.6 1.8-5 3.9-7.6 12.35-10.05l5.7 36.65Z" />
    <path id="F" stroke="#000" stroke-width="1" stroke-linejoin="round" stroke-linecap="round" fill="none"
      d="m600.45 303.65 2.15.95q2.5 1.3 4.6 2.95 6.6 5.35 5.95 12.5-.65 7.45-6.55 12.7-4.05 3.6-8.2 4.7l2.05-33.8Z" />
    <path id="H" stroke="#000" stroke-width="1" stroke-linejoin="round" stroke-linecap="round" fill="none"
      d="m535.5 245.7-1.45-.1q-5.1.65-15.15-.35l-9-1.1q-15.6-2.2-25.85-6.75-3.25-1.4-5.5-2.9l-1.65-1.2q-1.55-2.45-.9-4.35l.9-1.4 1.05-.95q1.3-1 2.55-1.15 2-.25 2.95-.15 16.4 6.55 31.95 9.25 7.8 1.35 12.3 1.4 4.7.15 9.3-1.75 2.25-.95 3.6-1.95 6.8-8.95 15.05-16.35 4.15-3.65 6.9-5.55 7.45-6.55 18.5-7.6 5.5-.5 9.55.25 3.7 1.05 4.8 2.65.55.85.35 1.45-1.4 2.55-5.25 4.1l-3.6 1q-12.45 2.55-21.8 9.65-2.9 2.2-5.15 4.6l-1.7 1.95q-10.35 12.45-18.3 16.05-2.5 1.15-4.45 1.25Z" />
    <g id="u">
      <path fill="#DEDFAB"
        d="m504.05 352.7 1.5-1.4q1.45-2.2 1.15-6.05-5.85 1.5-8.75 3.65l1.7 2.6q2.2 2.4 4.4 1.2m16.7-10.35q-10.55 1.8-12.85 2.65l2.5 3.75q3.05 3.5 5.75 2.3 5.15-2.3 4.6-8.7m6.65 8.45q.9-.15 1.7-.75 2.55-2 3.35-8.05-7.9 0-10.85.4l1.15 4.1q1.65 4.15 3.95 4.3h.7m16.95-4.8q1.5-2.2 1.65-3.9-2.55-.25-8.05-.2l-4.95.1 1.1 3.85q1.75 3.8 4.9 3.6 3.25-.2 5.35-3.45Z" />
      <path fill="#E4DDAB"
        d="M559.25 343.85q-9.15-1.35-13.25-1.75l.75 3.4q1.3 3.45 3.95 3.95l3-.65q3.45-1.35 5.55-4.95m0 0-.05 2.45q.55 2.75 3.8 4.35 3.25 1.65 6.65-.75 1.7-1.2 2.75-2.7l-13.15-3.35Z" />
      <path fill="#E3DDAC"
        d="M572.4 360.8q5.65-1.9 5.15-7.7-1.05-.95-2.65-1.45-3.1-.95-5.55 1.5l-1.15 1.45q-1.2 2.4-1.6 6.95h1.8q2.2-.15 4-.75m-6.65-3.05q-1.65-3.85-5.7-4.1-1.2-.2-2.7.65-2.95 1.65-4.35 6.85l6 .4q6.25.35 7.6 0 0-1.85-.85-3.8m-13-3.1q-.45-.9-1.25-1.75-1.55-1.75-3.25-1.55-1 0-2.45 1.1-2.85 2.2-5 7.9l4.9.2q5.25.25 7.3.6l-.25-6.5m-12.4 1.55q-.85-4.2-3.15-4.2-.9-.1-2.35 1-2.85 2.25-5.55 8.45l4.9-.6q5.15-.55 6.6-.5 0-2.1-.45-4.15m-22.6 6.7 5.05-.55q5.3-.6 6.5-.9.35-1.95 0-4-.65-4.05-3.85-4.3-1.4.05-3.05 1.3-3.35 2.45-4.65 8.45m-9.6.1q4.65.25 9.6-.1.1-1.85-.4-3.8-1.1-3.85-4.3-4.3-1 .05-2.6 1.05-3.15 2-5.9 6.85l3.6.3m-10.35-5.15-2.75 1.95q2.05 2.25 6 2.8 1.95.3 3.5.1.05-1.35-.2-3.7l-.3-2.1q-.4-.5-1.45-.65l-1-.1q-.85-.25-3.8 1.7Z" />
    </g>
  </defs>
  <use xlink:href="#a" />
  <use xlink:href="#b" />
  <use xlink:href="#c" />
  <use xlink:href="#d" />
  <use xlink:href="#e" />
  <use xlink:href="#f" />
  <use xlink:href="#g" />
  <use xlink:href="#h" />
  <use xlink:href="#i" />
  <use xlink:href="#j" />
  <use xlink:href="#k" />
  <use xlink:href="#l" />
  <use xlink:href="#m" />
  <use xlink:href="#n" />
  <use xlink:href="#o" />
  <use xlink:href="#p" />
  <use xlink:href="#q" />
  <use xlink:href="#r" />
  <use xlink:href="#s" />
  <use xlink:href="#t" />
  <use xlink:href="#u" />
  <use xlink:href="#v" />
  <use xlink:href="#w" />
  <use xlink:href="#x" />
  <use xlink:href="#y" />
  <use xlink:href="#z" />
  <use xlink:href="#A" />
  <use xlink:href="#B" />
  <use xlink:href="#C" />
  <use xlink:href="#D" />
  <use xlink:href="#E" />
  <use xlink:href="#F" />
  <use xlink:href="#G" />
  <use xlink:href="#H" />
</svg>