<svg xmlns="http://www.w3.org/2000/svg" width="600" height="600" preserveAspectRatio="none">
    <g id="background">
        <path fill="red"
            d="M645.8 180q-88.7-88.7-214.15-88.7T217.5 180q-88.7 88.7-88.7 214.15t88.7 214.15Q306.2 697 431.65 697t214.15-88.7q88.7-88.7 88.7-214.15T645.8 180Z"
            transform="translate(-127.55 -90.4) scale(.99059)" />
        <path fill="none" stroke="#FFF" stroke-linecap="round" stroke-linejoin="round" stroke-width=".1"
            d="M600.015 300.026q0 124.268-87.864 212.131-87.864 87.864-212.13 87.864-124.268 0-212.132-87.864Q.025 424.294.025 300.027q0-124.268 87.864-212.132T300.02.031q124.267 0 212.131 87.864t87.864 212.131Z" />
    </g>
    <path id="head" fill="#FFF"
        d="M444.55 119.5Q398.45 100 348 100q-50.45 0-96.55 19.5-44.5 18.8-78.8 53.15-34.35 34.3-53.15 78.8Q100 297.55 100 348q0 50.45 19.5 96.55 18.8 44.5 53.15 78.85 34.3 34.3 78.8 53.1Q297.55 596 348 596q50.45 0 96.55-19.5 44.5-18.8 78.85-53.1 34.3-34.35 53.1-78.85Q596 398.45 596 348q0-50.45-19.5-96.55-18.8-44.5-53.1-78.8-34.35-34.35-78.85-53.15M348 148q40.6 0 77.75 15.75 35.9 15.2 63.6 42.9 27.7 27.7 42.9 63.55Q548 307.35 548 348t-15.75 77.8q-15.2 35.85-42.9 63.55-27.7 27.7-63.6 42.9Q388.6 548 348 548q-40.65 0-77.8-15.75-35.9-15.2-63.6-42.9-27.7-27.7-42.85-63.55Q148 388.65 148 348q0-40.6 15.75-77.75 15.2-35.9 42.85-63.6 27.7-27.7 63.6-42.9Q307.35 148 348 148Z"
        transform="translate(-47.95 -47.95)" />
    <path id="mouth" fill="#FFF"
        d="M247.3 478.4q7.65 6.3 17.55 5.45 9.9-.9 16.25-8.55 12.45-14.95 29.95-23.15 17.55-8.25 36.95-8.25 19.4 0 36.9 8.2t29.95 23.2q6.25 7.45 15.95 8.5 10 1.1 17.85-5.4 7.65-6.35 8.55-16.25.85-9.85-5.45-17.5-19.3-23.2-46.45-35.9Q378.15 396 348 396t-57.3 12.75q-27.15 12.7-46.55 35.9-6.35 7.65-5.45 17.5.9 9.9 8.6 16.25Z"
        transform="translate(-47.95 -47.95)" />
    <path id="right_eye" fill="#FFF"
        d="M428 268q-13.3 0-22.65 9.4Q396 286.75 396 300q0 13.3 9.35 22.65Q414.7 332 428 332q13.3 0 22.65-9.35Q460 313.3 460 300q0-13.25-9.35-22.6-9.4-9.4-22.65-9.4Z"
        transform="translate(-47.95 -47.95)" />
    <path id="left_eye" fill="#FFF"
        d="M268 268q-13.25 0-22.65 9.4Q236 286.75 236 300q0 13.3 9.35 22.65Q254.75 332 268 332q13.25 0 22.6-9.35 9.4-9.4 9.4-22.65 0-13.25-9.4-22.6-9.35-9.4-22.6-9.4Z"
        transform="translate(-47.95 -47.95)" />
</svg>