<svg xmlns="http://www.w3.org/2000/svg" width="600" height="600" preserveAspectRatio="none">
    <g id="background">
        <path fill="#CCBF0F"
            d="M645.8 180q-88.7-88.7-214.15-88.7T217.5 180q-88.7 88.7-88.7 214.15t88.7 214.15Q306.2 697 431.65 697t214.15-88.7q88.7-88.7 88.7-214.15T645.8 180Z"
            transform="translate(-127.55 -89.75) scale(.99059)" />
        <path fill="none" stroke="#FFF" stroke-linecap="round" stroke-linejoin="round" stroke-width=".1"
            d="M600.015 300.682q0 124.268-87.864 212.131-87.864 87.864-212.13 87.864-124.268 0-212.132-87.864Q.025 424.95.025 300.683q0-124.268 87.864-212.132T300.02.687q124.267 0 212.131 87.864t87.864 212.131Z" />
    </g>
    <path id="head" fill="#FFF"
        d="M475.45 124.7Q441.1 90.35 396.6 71.55q-46.1-19.5-96.55-19.5-50.45 0-96.55 19.5-44.5 18.8-78.8 53.15-34.35 34.3-53.15 78.8-19.5 46.1-19.5 96.55 0 50.45 19.5 96.55 18.8 44.5 53.15 78.85 34.3 34.3 78.8 53.1 46.1 19.5 96.55 19.5 50.45 0 96.55-19.5 44.5-18.8 78.85-53.1 34.3-34.35 53.1-78.85 19.5-46.1 19.5-96.55 0-50.45-19.5-96.55-18.8-44.5-53.1-78.8m-97.65-8.9q35.9 15.2 63.6 42.9 27.7 27.7 42.9 63.55 15.75 37.15 15.75 77.8t-15.75 77.8q-15.2 35.85-42.9 63.55-27.7 27.7-63.6 42.9-37.15 15.75-77.75 15.75-40.65 0-77.8-15.75-35.9-15.2-63.6-42.9-27.7-27.7-42.85-63.55-15.75-37.15-15.75-77.8 0-40.6 15.75-77.75 15.2-35.9 42.85-63.6 27.7-27.7 63.6-42.9 37.15-15.75 77.8-15.75 40.6 0 77.75 15.75Z" />
    <path id="mouth" fill="#FFF"
        d="M412.05 388.05q0-9.9-7.05-16.95-7.05-7.05-16.95-7.05h-176q-9.9 0-16.95 7.05-7.05 7.05-7.05 16.95 0 9.95 7.05 16.95 7.05 7.05 16.95 7.05h176q9.9 0 16.95-7.05 7.05-7 7.05-16.95Z" />
    <path id="right_eye" fill="#FFF"
        d="M402.7 229.45q-9.4-9.4-22.65-9.4-13.3 0-22.65 9.4-9.35 9.35-9.35 22.6 0 13.3 9.35 22.65 9.35 9.35 22.65 9.35 13.3 0 22.65-9.35 9.35-9.35 9.35-22.65 0-13.25-9.35-22.6Z" />
    <path id="left_eye" fill="#FFF"
        d="M242.65 229.45q-9.35-9.4-22.6-9.4-13.25 0-22.65 9.4-9.35 9.35-9.35 22.6 0 13.3 9.35 22.65 9.4 9.35 22.65 9.35 13.25 0 22.6-9.35 9.4-9.4 9.4-22.65 0-13.25-9.4-22.6Z" />
</svg>