<svg xmlns="http://www.w3.org/2000/svg" version="1.1" xmlns:xlink="http://www.w3.org/1999/xlink"
    preserveAspectRatio="none" x="0px" y="0px" width="402px" height="529px" viewBox="0 0 402 529">
    <defs />

    <g id="body_white">
        <g>
            <g>
                <g>
                    <path fill="#E8E8E8" stroke="none" d="
M 331.5 381.75
Q 330 378.35 326.4 375 319.2 368.35 308.65 368.65 302 369.85 294.4 371.55 279.15 374.85 274.3 377.15
L 274.5 380.65
Q 272.2 383.55 268.1 386 259.9 390.95 250.8 388.65 246.95 387.9 241.8 386.35 231.6 383.25 225.45 379.45
L 225.45 372.9 197.8 359.75
Q 194.1 357.55 188.85 356.3 178.35 353.85 170.7 358.8
L 0.5 529.1 32.65 528.5 54.25 528.5
Q 64.85 518.3 82.25 500.9 104.8 478.4 110.95 472.35 155.35 428.55 169.55 412.7 169.9 412.25 170.3 411.8 174 407.6 175.35 405.55 174 407.6 170.3 411.8
L 175.8 455.15 175.35 528.55 197.35 528.55 210.9 508.9 184.25 483.7
Q 188.05 472.9 199.4 430.7
L 209.95 390.65 199.4 430.7
Q 188.05 472.9 184.25 483.7
L 210.9 508.9 197.35 528.55 319.35 528.55 296 505.65 322.65 475.75 280.55 385.5 322.65 475.75 296 505.65 319.35 528.55 331.5 528.55
Q 329.9 486.55 328.8 457.55 327.4 420 326.85 404.2 327.4 420 328.8 457.55
L 361.45 528.55 402.1 529.05
Q 385.05 493.15 367.65 456.8 332.95 384.1 331.5 381.75 Z" />
                </g>
            </g>

            <g>
                <path stroke="#000000" stroke-width="1" stroke-linejoin="round" stroke-linecap="round" fill="none" d="
M 328.8 457.55
L 361.45 528.55 402.1 529.05
Q 385.05 493.15 367.65 456.8 332.95 384.1 331.5 381.75 330 378.35 326.4 375 319.2 368.35 308.65 368.65 302 369.85 294.4 371.55 279.15 374.85 274.3 377.15
L 274.5 380.65
Q 272.2 383.55 268.1 386 259.9 390.95 250.8 388.65 246.95 387.9 241.8 386.35 231.6 383.25 225.45 379.45
L 225.45 372.9 197.8 359.75
Q 194.1 357.55 188.85 356.3 178.35 353.85 170.7 358.8
L 0.5 529.1 32.65 528.5 54.25 528.5
Q 64.85 518.3 82.25 500.9 104.8 478.4 110.95 472.35 155.35 428.55 169.55 412.7 169.9 412.25 170.3 411.8 174 407.6 175.35 405.55
M 170.3 411.8
L 175.8 455.15 175.35 528.55 197.35 528.55 210.9 508.9 184.25 483.7
Q 188.05 472.9 199.4 430.7
L 209.95 390.65
M 280.55 385.5
L 322.65 475.75 296 505.65 319.35 528.55 331.5 528.55
Q 329.9 486.55 328.8 457.55 327.4 420 326.85 404.2
M 197.35 528.55
L 319.35 528.55" />
            </g>
        </g>
    </g>

    <g id="body_midt">
        <g>
            <g>
                <g>
                    <path fill="#97D6D8" stroke="none" d="
M 274.5 380.65
Q 271.05 386.05 263.2 388.6 247.45 393.7 225.45 379.45
L 231 528.55 287.6 528.55 274.5 380.65 Z" />
                </g>
            </g>

            <g>
                <path stroke="#000000" stroke-width="1" stroke-linejoin="round" stroke-linecap="round" fill="none" d="
M 225.45 379.45
L 231 528.55 287.6 528.55 274.5 380.65
Q 271.05 386.05 263.2 388.6 247.45 393.7 225.45 379.45 Z" />
            </g>
        </g>
    </g>

    <g id="throat">
        <g>
            <g>
                <g>
                    <path fill="#D3CABA" stroke="none" d="
M 241.5 359.3
Q 236.65 357.65 232.45 355.25
L 229.2 353.15 225.45 372.9 225.45 379.45
Q 246.75 392.15 262.75 387.7 270.75 385.45 274.5 380.65
L 273.45 359.65
Q 257.1 364.45 241.5 359.3 Z" />
                </g>
            </g>

            <g>
                <path stroke="#000000" stroke-width="1" stroke-linejoin="round" stroke-linecap="round" fill="none" d="
M 225.45 379.45
L 225.45 372.9 229.2 353.15 232.45 355.25
Q 236.65 357.65 241.5 359.3 257.1 364.45 273.45 359.65
L 274.5 380.65
Q 270.75 385.45 262.75 387.7 246.75 392.15 225.45 379.45 Z" />
            </g>
        </g>
    </g>

    <g id="hair">
        <g>
            <g>
                <g>
                    <path fill="#AAD3EA" stroke="none" d="
M 348.25 172.45
Q 344.25 168.75 341.3 164.7
L 339.2 161.4
Q 343.6 156.1 359.1 129.95 366.85 116.9 373.7 104.9 366.2 108.95 342.95 112.35
L 321.2 114.9
Q 319 115.2 317.9 113.35
L 317.2 111.4
Q 317.5 107.05 320.15 94.8
L 322.7 83.4
Q 323 79.05 322.15 66.1
L 321.2 54
Q 319.95 43.7 319.7 33.8
L 319.7 26 306.7 49.5
Q 301.7 57.95 282 75.55
L 263.25 91.5 248.25 72
Q 243.55 65.45 229.95 52.3
L 217.25 40.5
Q 210.4 33 197.65 16
L 186.25 0.5
Q 189.7 10.5 193.05 38.75 194.75 52.9 195.75 65 197 76.25 196.25 94 195.9 102.9 195.25 109.5 178.4 111.7 149.15 108.25
L 123.25 104.4 156.25 172.9
Q 153.15 173.2 141.15 179.1
L 129.75 184.9
Q 125.4 188.35 110.9 195.45
L 97.25 201.9 154.75 228.4 110.75 264.4 154.75 281.4 143.25 308.9 182.75 307.9 176.75 332.4 341.75 317.4
Q 335.8 307.7 334.45 302.1 334 300.35 334.1 299.2
L 334.25 298.4 352.25 298.9 337.25 279.4
Q 339.15 277.85 341.4 271.45
L 343.25 265.4
Q 349.75 262.9 372.75 252.9 361.85 248.85 351.45 236.45 348.15 232.6 345.35 228.35
L 343.2 224.9
Q 341.35 218.35 360.6 202.7 370.2 194.9 380.2 188.4 361.15 184.35 348.25 172.45 Z" />
                </g>
            </g>

            <g>
                <path stroke="#000000" stroke-width="1" stroke-linejoin="round" stroke-linecap="round" fill="none" d="
M 341.75 317.4
L 176.75 332.4 182.75 307.9 143.25 308.9 154.75 281.4 110.75 264.4 154.75 228.4 97.25 201.9 110.9 195.45
Q 125.4 188.35 129.75 184.9
L 141.15 179.1
Q 153.15 173.2 156.25 172.9
L 123.25 104.4 149.15 108.25
Q 178.4 111.7 195.25 109.5 195.9 102.9 196.25 94 197 76.25 195.75 65 194.75 52.9 193.05 38.75 189.7 10.5 186.25 0.5
L 197.65 16
Q 210.4 33 217.25 40.5
L 229.95 52.3
Q 243.55 65.45 248.25 72
L 263.25 91.5 282 75.55
Q 301.7 57.95 306.7 49.5
L 319.7 26 319.7 33.8
Q 319.95 43.7 321.2 54
L 322.15 66.1
Q 323 79.05 322.7 83.4
L 320.15 94.8
Q 317.5 107.05 317.2 111.4
L 317.9 113.35
Q 319 115.2 321.2 114.9
L 342.95 112.35
Q 366.2 108.95 373.7 104.9 366.85 116.9 359.1 129.95 343.6 156.1 339.2 161.4
L 341.3 164.7
Q 344.25 168.75 348.25 172.45 361.15 184.35 380.2 188.4 370.2 194.9 360.6 202.7 341.35 218.35 343.2 224.9
L 345.35 228.35
Q 348.15 232.6 351.45 236.45 361.85 248.85 372.75 252.9 349.75 262.9 343.25 265.4
L 341.4 271.45
Q 339.15 277.85 337.25 279.4
L 352.25 298.9 334.25 298.4 334.1 299.2
Q 334 300.35 334.45 302.1 335.8 307.7 341.75 317.4 Z" />
            </g>
        </g>
    </g>

    <g id="face_circumference">
        <g>
            <g>
                <g>
                    <path fill="#D3CABA" stroke="none" d="
M 329.15 193.5
L 327.3 182.85
Q 324.45 169.1 320 158.05 317.95 153.05 315.6 148.65 304.4 127.6 285.75 119.15 275.95 114.7 265.25 114.35
L 256.5 114.85
Q 237.9 115.8 221.25 123.65 216.05 126.1 211.65 129
L 208.3 131.35
Q 190.4 146.95 183.65 165 180.25 174 180.45 179.9 176.85 197.3 178 229.05 178.55 244.9 179.85 257.3 180.7 267.85 186.4 294.1 188.05 304.55 195.15 318.5 198.75 325.45 201.95 330.3 218 350.05 239.75 357.8 250.65 361.7 258.3 361.6 273.35 361.2 287.4 354.95 294.45 351.85 298.45 348.8 315.35 336.2 322.25 320 324.45 314.95 325.35 310.15
L 325.8 306.35
Q 327 301.95 328.3 279.25
L 330.25 226.9
Q 330.85 207.95 329.15 193.5 Z" />
                </g>
            </g>

            <g>
                <path stroke="#000000" stroke-width="1" stroke-linejoin="round" stroke-linecap="round" fill="none" d="
M 256.5 114.85
L 265.25 114.35
Q 275.95 114.7 285.75 119.15 304.4 127.6 315.6 148.65 317.95 153.05 320 158.05 324.45 169.1 327.3 182.85
L 329.15 193.5
Q 330.85 207.95 330.25 226.9
L 328.3 279.25
Q 327 301.95 325.8 306.35
L 325.35 310.15
Q 324.45 314.95 322.25 320 315.35 336.2 298.45 348.8 294.45 351.85 287.4 354.95 273.35 361.2 258.3 361.6 250.65 361.7 239.75 357.8 218 350.05 201.95 330.3 198.75 325.45 195.15 318.5 188.05 304.55 186.4 294.1 180.7 267.85 179.85 257.3 178.55 244.9 178 229.05 176.85 197.3 180.45 179.9 180.25 174 183.65 165 190.4 146.95 208.3 131.35
L 211.65 129
Q 216.05 126.1 221.25 123.65 237.9 115.8 256.5 114.85 Z" />
            </g>
        </g>
    </g>

    <g id="nose">
        <g>
            <g>
                <path stroke="#000000" stroke-width="1" stroke-linejoin="round" stroke-linecap="round" fill="none" d="
M 260.3 249
L 262.1 253.7
Q 264.3 259.25 266.55 263.6 273.7 277.55 278.3 274.35 281.15 272.85 282.25 267.1 284.5 255.55 275.95 234.15" />
            </g>
        </g>
    </g>

    <g id="eye_wrinkles_left">
        <g>
            <g>
                <path stroke="#000000" stroke-width="1" stroke-linejoin="round" stroke-linecap="round" fill="none" d="
M 197.9 247.75
L 199.75 250.45
Q 202.4 253.6 206.25 255.75 218.5 262.65 238.05 257.1" />
            </g>
        </g>
    </g>

    <g id="eye_wrinkles_right">
        <g>
            <g>
                <path stroke="#000000" stroke-width="1" stroke-linejoin="round" stroke-linecap="round" fill="none" d="
M 292.7 247.3
L 296.35 248.35
Q 300.85 249.35 305.3 249.1 319.45 248.3 327.3 235.15" />
            </g>
        </g>
    </g>

    <g id="mouth_inner">
        <g>
            <g>
                <g>
                    <path fill="#652122" stroke="none"
                        d="
M 268.95 288.2
L 261.95 288.05
Q 235.35 288.85 226.1 295.8 223.2 297.95 222.4 300.5 222 301.75 222.15 302.6 222.25 306.25 226.5 308.2 228.6 309.2 230.7 309.45 234.4 310.2 241.35 309.9 244.85 309.75 247.55 309.45 255.5 307.9 270.5 306.7 273.85 306.55 280.45 307.65 284.4 308.3 296.25 308.55 303.35 308.1 306.1 304.3 307.45 302.4 307.4 300.6 307 292.55 284.45 289.5 277.35 288.55 268.95 288.2 Z" />
                </g>
            </g>

            <g>
                <path stroke="#000000" stroke-width="1" stroke-linejoin="round" stroke-linecap="round" fill="none"
                    d="
M 222.15 302.6
Q 222 301.75 222.4 300.5 223.2 297.95 226.1 295.8 235.35 288.85 261.95 288.05
L 268.95 288.2
Q 277.35 288.55 284.45 289.5 307 292.55 307.4 300.6 307.45 302.4 306.1 304.3 303.35 308.1 296.25 308.55 284.4 308.3 280.45 307.65 273.85 306.55 270.5 306.7 255.5 307.9 247.55 309.45 244.85 309.75 241.35 309.9 234.4 310.2 230.7 309.45 228.6 309.2 226.5 308.2 222.25 306.25 222.15 302.6 Z" />
            </g>
        </g>
    </g>

    <g id="mouth_teeth">
        <g>
            <g>
                <g>
                    <path fill="#E3DDAC" stroke="none" d="
M 254.75 299.6
Q 253.35 299.65 251.7 300.9 248.35 303.35 247.05 309.35
L 252.1 308.8
Q 257.4 308.2 258.6 307.9 258.95 305.95 258.6 303.9 257.95 299.85 254.75 299.6
M 266.5 298.45
Q 265.6 298.35 264.15 299.45 261.3 301.7 258.6 307.9
L 263.5 307.3
Q 268.65 306.75 270.1 306.8 270.1 304.7 269.65 302.65 268.8 298.45 266.5 298.45
M 280.8 299.35
Q 279.25 297.6 277.55 297.8 276.55 297.8 275.1 298.9 272.25 301.1 270.1 306.8
L 275 307
Q 280.25 307.25 282.3 307.6
L 282.05 301.1
Q 281.6 300.2 280.8 299.35
M 295.05 304.2
Q 293.4 300.35 289.35 300.1 288.15 299.9 286.65 300.75 283.7 302.4 282.3 307.6
L 288.3 308
Q 294.55 308.35 295.9 308 295.9 306.15 295.05 304.2
M 306.85 299.55
Q 305.8 298.6 304.2 298.1 301.1 297.15 298.65 299.6
L 297.5 301.05
Q 296.3 303.45 295.9 308
L 297.7 308
Q 299.9 307.85 301.7 307.25 307.35 305.35 306.85 299.55
M 233.85 309.15
Q 233.9 307.8 233.65 305.45
L 233.35 303.35
Q 232.95 302.85 231.9 302.7
L 230.9 302.6
Q 230.05 302.35 227.1 304.3
L 224.35 306.25
Q 226.4 308.5 230.35 309.05 232.3 309.35 233.85 309.15
M 242.35 301.25
Q 241.35 301.3 239.75 302.3 236.6 304.3 233.85 309.15
L 237.45 309.45
Q 242.1 309.7 247.05 309.35 247.15 307.5 246.65 305.55 245.55 301.7 242.35 301.25 Z" />

                    <path fill="#DEDFAB" stroke="none" d="
M 236 291.7
Q 230.15 293.2 227.25 295.35
L 228.95 297.95
Q 231.15 300.35 233.35 299.15
L 234.85 297.75
Q 236.3 295.55 236 291.7
M 237.2 291.45
L 239.7 295.2
Q 242.75 298.7 245.45 297.5 250.6 295.2 250.05 288.8 239.5 290.6 237.2 291.45
M 275.3 288.55
Q 272.75 288.3 267.25 288.35
L 262.3 288.45 263.4 292.3
Q 265.15 296.1 268.3 295.9 271.55 295.7 273.65 292.45 275.15 290.25 275.3 288.55
M 261.75 288.45
Q 253.85 288.45 250.9 288.85
L 252.05 292.95
Q 253.7 297.1 256 297.25
L 256.7 297.25
Q 257.6 297.1 258.4 296.5 260.95 294.5 261.75 288.45 Z" />

                    <path fill="#E4DDAB" stroke="none" d="
M 288.55 290.3
L 288.5 292.75
Q 289.05 295.5 292.3 297.1 295.55 298.75 298.95 296.35 300.65 295.15 301.7 293.65
L 288.55 290.3
M 276.05 291.95
Q 277.35 295.4 280 295.9
L 283 295.25
Q 286.45 293.9 288.55 290.3 279.4 288.95 275.3 288.55
L 276.05 291.95 Z" />
                </g>
            </g>

            <g>
                <path stroke="#000000" stroke-width="1" stroke-linejoin="round" stroke-linecap="round" fill="none" d="
M 250.9 288.85
L 252.05 292.95
Q 253.7 297.1 256 297.25
L 256.7 297.25
Q 257.6 297.1 258.4 296.5 260.95 294.5 261.75 288.45 253.85 288.45 250.9 288.85 Z
M 275.3 288.55
Q 272.75 288.3 267.25 288.35
L 262.3 288.45 263.4 292.3
Q 265.15 296.1 268.3 295.9 271.55 295.7 273.65 292.45 275.15 290.25 275.3 288.55 279.4 288.95 288.55 290.3
L 301.7 293.65
Q 300.65 295.15 298.95 296.35 295.55 298.75 292.3 297.1 289.05 295.5 288.5 292.75
L 288.55 290.3
Q 286.45 293.9 283 295.25
L 280 295.9
Q 277.35 295.4 276.05 291.95
L 275.3 288.55 Z
M 237.2 291.45
L 239.7 295.2
Q 242.75 298.7 245.45 297.5 250.6 295.2 250.05 288.8 239.5 290.6 237.2 291.45 Z
M 227.25 295.35
L 228.95 297.95
Q 231.15 300.35 233.35 299.15
L 234.85 297.75
Q 236.3 295.55 236 291.7 230.15 293.2 227.25 295.35 Z
M 247.05 309.35
Q 247.15 307.5 246.65 305.55 245.55 301.7 242.35 301.25 241.35 301.3 239.75 302.3 236.6 304.3 233.85 309.15
L 237.45 309.45
Q 242.1 309.7 247.05 309.35 248.35 303.35 251.7 300.9 253.35 299.65 254.75 299.6 257.95 299.85 258.6 303.9 258.95 305.95 258.6 307.9 261.3 301.7 264.15 299.45 265.6 298.35 266.5 298.45 268.8 298.45 269.65 302.65 270.1 304.7 270.1 306.8 272.25 301.1 275.1 298.9 276.55 297.8 277.55 297.8 279.25 297.6 280.8 299.35 281.6 300.2 282.05 301.1
L 282.3 307.6
Q 283.7 302.4 286.65 300.75 288.15 299.9 289.35 300.1 293.4 300.35 295.05 304.2 295.9 306.15 295.9 308 296.3 303.45 297.5 301.05
L 298.65 299.6
Q 301.1 297.15 304.2 298.1 305.8 298.6 306.85 299.55 307.35 305.35 301.7 307.25 299.9 307.85 297.7 308
L 295.9 308
Q 294.55 308.35 288.3 308
L 282.3 307.6
Q 280.25 307.25 275 307
L 270.1 306.8
Q 268.65 306.75 263.5 307.3
L 258.6 307.9
Q 257.4 308.2 252.1 308.8
L 247.05 309.35 Z
M 233.85 309.15
Q 232.3 309.35 230.35 309.05 226.4 308.5 224.35 306.25
L 227.1 304.3
Q 230.05 302.35 230.9 302.6
L 231.9 302.7
Q 232.95 302.85 233.35 303.35
L 233.65 305.45
Q 233.9 307.8 233.85 309.15 Z" />
            </g>
        </g>
    </g>

    <g id="mouth_wrinkles">
        <g>
            <g>
                <path stroke="#000000" stroke-width="1" stroke-linejoin="round" stroke-linecap="round" fill="none" d="
M 301.85 281.85
L 304.7 283.05
Q 308.05 284.6 310.7 286.6 319.2 293.05 317.4 301.25 317.8 305.35 315.6 309.5 311.2 317.9 298.3 318.5
M 227.7 282.1
Q 225.3 283.5 222.4 285.9 216.55 290.7 213.9 295.55 205.3 311.05 231.5 321.35" />
            </g>
        </g>
    </g>

    <g id="eye_right_inner">
        <g>
            <g>
                <g>
                    <path fill="#E8E8E8" stroke="none" d="
M 324.2 224.45
Q 329.5 217.2 330.25 205.15 330.6 201.7 329.6 197.2 327.65 188.15 320.95 182.95 319.35 181.05 315.55 179.3 310.95 177.2 305.1 176.65
L 301.05 176.45
Q 300.85 176.45 300.65 176.45 300.4 176.45 300.2 176.45 300.1 176.45 300.05 176.45
L 298.1 176.5
Q 297.70625 176.51875 297.3 176.55 297.1 176.55 296.9 176.55 296.6 176.55 296.35 176.55 296.15 176.55 295.95 176.55
L 292.95 176.7
Q 288.4375 177.425 283.75 180.2 270.3 188.25 268.5 210.15
L 268.85 213
Q 269.45 216.6 271 220 275.85 231 287.8 236.65
L 290.75 237.15
Q 291.6875 237.2625 292.6 237.35
L 295.75 237.45
Q 295.95 237.45 296.15 237.45 297.25 237.4 298.35 237.35 310.55 236.55 319.05 229.25
L 320.65 228.2
Q 322.55 226.7 324.2 224.45 Z" />
                </g>
            </g>

            <g>
                <path stroke="#000000" stroke-width="1" stroke-linejoin="round" stroke-linecap="round" fill="none" d="
M 305.1 176.65
L 301.05 176.45
Q 300.85 176.45 300.65 176.45 300.4 176.45 300.2 176.45 300.1 176.45 300.05 176.45
L 298.125 176.5
M 295.95 176.55
L 292.95 176.725
M 292.625 237.35
L 295.75 237.45
Q 295.95 237.45 296.15 237.45 297.5 237.45 298.95 237.35 311.15 236.55 319.65 229.25
L 321.25 228.2
Q 323.15 226.7 324.8 224.45 330.1 217.2 330.85 205.15 331.2 201.7 330.2 197.2 328.25 188.15 321.55 182.95 319.95 181.05 316.15 179.3 311.3 177.1 305.1 176.65
M 298.125 176.5
Q 297.5033203125 176.514453125 296.9 176.55 296.4 176.5 295.95 176.55
M 292.95 176.725
Q 288.2359375 177.321484375 283.35 180.2 269.9 188.25 268.1 210.15
L 268.45 213
Q 269.05 216.6 270.6 220 275.45 231 287.4 236.65
L 290.35 237.15
Q 291.4560546875 237.2685546875 292.625 237.35" />
            </g>
        </g>
    </g>

    <g id="eye_right_propil">
        <g>
            <g>
                <g>
                    <path fill="#0C0F0C" stroke="none" d="
M 307.4 209.35
L 307.45 209.75
Q 307.6 210.15 308.05 210.45 308.55 210.75 309.15 210.75 309.7 210.7 310.15 210.4 310.25 210.35 310.35 210.25 310.55 210.6 311 210.8 311.5 211.05 312.15 210.95 312.8 210.85 313.2 210.45 313.55 210.1 313.45 209.6 313.4 209.1 312.95 208.75 312.9 208.7 312.8 208.7 313 208.5 313.1 208.3 313.25 208.05 313.15 207.6 313.1 206.9 312.1 206.65 311.4 206.4 310.8 206.7 310.55 206.6 310.3 206.6 309.95 206.55 309.7 206.6 309.4 206.55 309 206.7 308.35 206.85 308.15 207.35
L 308.1 207.75
Q 308.1 207.85 308.1 207.95 307.25 208.4 307.45 209.15
L 307.45 209.2 307.4 209.35 Z" />
                </g>
            </g>
        </g>
    </g>

    <g id="eye_right_lids">
        <g>
            <g>
                <g>
                    <path fill="#D3CABA" stroke="none" d="
M 331.15 205.05
Q 331.45 199.8 329.3 193.75 325.1 181.7 313.15 177.8 310 176.15 304.45 175.75 293.4 175.05 281.5 181.6 277.8 184.4 274.3 189.45 267.35 199.55 268.55 210.75
L 292.35 207.65
Q 317.1 204.6 331.15 205.05 Z" />
                </g>
            </g>

            <g>
                <path stroke="#000000" stroke-width="1" stroke-linejoin="round" stroke-linecap="round" fill="none"
                    d="
M 281.5 181.6
Q 277.8 184.4 274.3 189.45 267.35 199.55 268.55 210.75
L 292.35 207.65
Q 317.1 204.6 331.15 205.05 331.45 199.8 329.3 193.75 325.1 181.7 313.15 177.8 310 176.15 304.45 175.75 293.4 175.05 281.5 181.6 Z" />
            </g>
        </g>
    </g>

    <g id="eye_right_closed" />

    <g id="eye_left_inner">
        <g>
            <g>
                <g>
                    <path fill="#E8E8E8" stroke="none"
                        d="
M 230.5 181.65
Q 225.9 181.15 222.95 181.8 218 182.8 208 189.4 202.25 193.2 199.35 203.1 197.9 208.1 197.6 212.3 198.8 233.95 214.45 241.05 222.25 244.6 229.8 243.8 253.25 242.85 261.15 227.05 265.05 219.15 264.3 211.45 260.8 192.05 249 185.25 241.85 181.2 230.5 181.65 Z" />
                </g>
            </g>

            <g>
                <path stroke="#000000" stroke-width="1" stroke-linejoin="round" stroke-linecap="round" fill="none"
                    d="
M 197.6 212.3
Q 197.9 208.1 199.35 203.1 202.25 193.2 208 189.4 218 182.8 222.95 181.8 225.9 181.15 230.5 181.65 241.85 181.2 249 185.25 260.8 192.05 264.3 211.45 265.05 219.15 261.15 227.05 253.25 242.85 229.8 243.8 222.25 244.6 214.45 241.05 198.8 233.95 197.6 212.3 Z" />
            </g>
        </g>
    </g>

    <g id="eye_left_pupil">
        <g>
            <g>
                <g>
                    <path fill="#0E0E0E" stroke="none"
                        d="
M 246.35 215.1
Q 246.75 214.55 246.85 213.25 246.85 212.1 246.7 211.8 246.45 211.25 245.75 210.85 244.6 210 243.6 209.8 242.1 209.55 241.4 210.55 241.2 210.8 240.9 211.65 240.7 212.3 240.55 212.9 240.45 213.95 240.9 214.5 241.3 214.9 242.3 215.15 243.8 215.65 244.35 215.75 245.75 215.85 246.35 215.1 Z" />
                </g>
            </g>
        </g>
    </g>

    <g id="eye_left_lids">
        <g>
            <g>
                <g>
                    <path fill="#D3CABA" stroke="none"
                        d="
M 208.45 187.8
Q 205.5 191.35 202.65 196.2 196.9 205.9 197.3 212.25
L 222.65 210.1
Q 250.65 208.45 264 211.15 263.7 208.75 262.75 205.2 260.9 198.05 257.8 192.3 256.45 190.1 253.9 187.25 248.8 181.55 242.8 178.2 238.95 176.95 231.8 176.5 227.95 177 223.1 178.65 213.4 182 208.45 187.8 Z" />
                </g>
            </g>

            <g>
                <path stroke="#000000" stroke-width="1" stroke-linejoin="round" stroke-linecap="round" fill="none"
                    d="
M 197.3 212.25
L 222.65 210.1
Q 250.65 208.45 264 211.15 263.7 208.75 262.75 205.2 260.9 198.05 257.8 192.3 256.45 190.1 253.9 187.25 248.8 181.55 242.8 178.2 238.95 176.95 231.8 176.5 227.95 177 223.1 178.65 213.4 182 208.45 187.8 205.5 191.35 202.65 196.2 196.9 205.9 197.3 212.25 Z" />
            </g>
        </g>
    </g>

    <g id="eye_left_closed">
        <g>
            <g>
                <g>
                    <path fill="#D3CABA" stroke="none"
                        d="
M 208.45 187.8
Q 207.2 189.05 205.55 191.3 202.25 195.8 200.25 200.75 197.3 208.1 197.65 215.15 198.05 223.3 202.85 231.1 203 231.35 203.15 231.55 208.15 239.4 217.55 242.45 226 245.2 236.1 243.5 245.5 241.9 252.55 237.15 259.75 232.3 260.95 226.35 261.7 225.1 262.5 223 264.1 218.85 264.45 214.9 264.95 208.4 263.3 202.2 261.5 195.4 257.8 192.3 256.45 190.1 253.9 187.25 248.8 181.55 242.8 178.2 238.95 176.95 231.8 176.5 227.95 177 223.1 178.65 213.4 182 208.45 187.8 Z" />
                </g>
            </g>

            <g>
                <path stroke="#000000" stroke-width="1" stroke-linejoin="round" stroke-linecap="round" fill="none"
                    d="
M 202.85 231.1
Q 203 231.35 203.15 231.55 208.15 239.4 217.55 242.45 226 245.2 236.1 243.5 245.5 241.9 252.55 237.15 259.75 232.3 260.95 226.35 261.7 225.1 262.5 223 264.1 218.85 264.45 214.9 264.95 208.4 263.3 202.2 261.5 195.4 257.8 192.3 256.45 190.1 253.9 187.25 248.8 181.55 242.8 178.2 238.95 176.95 231.8 176.5 227.95 177 223.1 178.65 213.4 182 208.45 187.8 207.2 189.05 205.55 191.3 202.25 195.8 200.25 200.75 197.3 208.1 197.65 215.15 198.05 223.3 202.85 231.1 Z" />
            </g>
        </g>
    </g>

    <g id="ear_left">
        <g>
            <g>
                <g>
                    <path fill="#D3CABA" stroke="none" d="
M 167.5 267.35
Q 166.3 269.75 165.7 272.35 165.35 273.65 165.3 274.5 165.55 285 175.6 290.55 180.6 293.3 185.55 293.95
L 179.85 257.3
Q 171.4 259.75 167.5 267.35 Z" />
                </g>
            </g>

            <g>
                <path stroke="#000000" stroke-width="1" stroke-linejoin="round" stroke-linecap="round" fill="none" d="
M 185.55 293.95
Q 180.6 293.3 175.6 290.55 165.55 285 165.3 274.5 165.35 273.65 165.7 272.35 166.3 269.75 167.5 267.35 171.4 259.75 179.85 257.3
L 185.55 293.95 Z" />
            </g>
        </g>
    </g>

    <g id="ear_right">
        <g>
            <g>
                <g>
                    <path fill="#D3CABA" stroke="none" d="
M 329.75 250.1
L 327.7 283.9
Q 331.85 282.8 335.9 279.2 341.8 273.95 342.45 266.5 343.1 259.35 336.5 254 334.4 252.35 331.9 251.05
L 329.75 250.1 Z" />
                </g>
            </g>

            <g>
                <path stroke="#000000" stroke-width="1" stroke-linejoin="round" stroke-linecap="round" fill="none" d="
M 329.75 250.1
L 331.9 251.05
Q 334.4 252.35 336.5 254 343.1 259.35 342.45 266.5 341.8 273.95 335.9 279.2 331.85 282.8 327.7 283.9
L 329.75 250.1 Z" />
            </g>
        </g>
    </g>

    <g id="ear_browe">
        <g>
            <g>
                <g>
                    <path fill="#AAD3EA" stroke="none" d="
M 325.05 153.55
Q 325.25 152.95 324.7 152.1 323.6 150.5 319.9 149.45 315.85 148.7 310.35 149.2 299.3 150.25 291.85 156.8 289.1 158.7 284.95 162.35 276.7 169.75 269.9 178.7 268.55 179.7 266.3 180.65 261.7 182.55 257 182.4 252.5 182.35 244.7 181 229.15 178.3 212.75 171.75 211.8 171.65 209.8 171.9 208.55 172.05 207.25 173.05
L 206.2 174 205.3 175.4
Q 204.65 177.3 206.2 179.75
L 207.85 180.95
Q 210.1 182.45 213.35 183.85 223.6 188.4 239.2 190.6
L 248.2 191.7
Q 258.25 192.7 263.35 192.05
L 264.8 192.15
Q 266.75 192.05 269.25 190.9 277.2 187.3 287.55 174.85
L 289.25 172.9
Q 291.5 170.5 294.4 168.3 303.75 161.2 316.2 158.65
L 319.8 157.65
Q 323.65 156.1 325.05 153.55 Z" />
                </g>
            </g>

            <g>
                <path stroke="#000000" stroke-width="1" stroke-linejoin="round" stroke-linecap="round" fill="none" d="
M 263.35 192.05
L 264.8 192.15
Q 266.75 192.05 269.25 190.9 277.2 187.3 287.55 174.85
L 289.25 172.9
Q 291.5 170.5 294.4 168.3 303.75 161.2 316.2 158.65
L 319.8 157.65
Q 323.65 156.1 325.05 153.55 325.25 152.95 324.7 152.1 323.6 150.5 319.9 149.45 315.85 148.7 310.35 149.2 299.3 150.25 291.85 156.8 289.1 158.7 284.95 162.35 276.7 169.75 269.9 178.7 268.55 179.7 266.3 180.65 261.7 182.55 257 182.4 252.5 182.35 244.7 181 229.15 178.3 212.75 171.75 211.8 171.65 209.8 171.9 208.55 172.05 207.25 173.05
L 206.2 174 205.3 175.4
Q 204.65 177.3 206.2 179.75
L 207.85 180.95
Q 210.1 182.45 213.35 183.85 223.6 188.4 239.2 190.6
L 248.2 191.7
Q 258.25 192.7 263.35 192.05 Z" />
            </g>
        </g>
    </g>
</svg>