
<svg xmlns="http://www.w3.org/2000/svg" version="1.1" xmlns:xlink="http://www.w3.org/1999/xlink" preserveAspectRatio="none" x="0px" y="0px" width="200px" height="200px" viewBox="0 0 200 200">
<defs>
<g id="Layer0_0_FILL">
<path fill="#E39933" stroke="none" d="
M 192.4 9.4
Q 185.05 0.1 175.75 0
L 153.1 0.1
Q 96.05 0.1 96.05 49.9 96.05 65.25 103.55 92.8 111.1 120.45 111.15 135.25 111.1 156.75 99.35 168.2 89.1 178.15 73.85 178.05 61.9 178.05 51.3 171.55 37.6 162.7 37.6 147.45 37.6 133.65 47.45 126.65 54.95 121.25 65.4 121.25
L 92.55 121.2 86 99.5 51 99.5
Q 0.1 99.4 0 144 0.1 174.6 27.7 189.4 47.25 199.9 72.85 200 100.55 199.9 121.15 186.05 149.05 167.25 149.05 129.95 149.05 112.55 140.85 81.55 132.7 50.65 132.7 41.8 132.7 24.4 146.7 24.5 147.85 24.4 151.85 24.95 151.1 30 151.1 33.05 151.1 46.65 158.35 56.2 165.4 65.9 175.55 65.9 185.6 65.9 192.75 56.2 200.1 46.75 200 33.15 200 19.55 192.4 9.4 Z"/>
</g>
</defs>

<g transform="matrix( 1, 0, 0, 1, 0,0) ">
<use xlink:href="#Layer0_0_FILL"/>
</g>
</svg>
